<svg width="80" height="80" viewBox="0 0 80 80" fill="none" xmlns="http://www.w3.org/2000/svg">
<circle cx="40" cy="40" r="40" fill="#89AF01"/>
<g clip-path="url(#clip0)">
<path d="M33.3177 39.1377L44.876 50.696C44.9293 49.6704 44.9753 47.407 44.5864 44.6949C43.8855 39.8071 42.083 35.7913 39.3734 33.0819C36.664 30.3724 32.6482 28.5698 27.7604 27.8689C24.1235 27.3474 21.2916 27.6079 21.1728 27.6194C20.591 27.675 20.1305 28.1356 20.0748 28.7174C20.0634 28.8361 19.8029 31.668 20.3244 35.3049C21.0252 40.1928 22.8278 44.2086 25.5373 46.918C28.2468 49.6274 32.2626 51.4301 37.1504 52.131C38.9505 52.3891 40.553 52.4556 41.7272 52.4556C42.3219 52.4556 42.8065 52.4385 43.1513 52.4205L31.593 40.8623C31.1168 40.3861 31.1168 39.6139 31.593 39.1376C32.0692 38.6615 32.8414 38.6615 33.3177 39.1377Z" fill="white"/>
<path d="M59.9456 36.0785C59.89 35.4967 59.4295 35.0362 58.8477 34.9806C58.5217 34.9495 50.8127 34.2693 46.3235 38.7585C46.1488 38.9333 45.982 39.1132 45.8225 39.2972C46.3481 40.8688 46.7441 42.558 47.0008 44.3488C47.083 44.9223 47.147 45.4758 47.1967 46.0047L50.3832 42.8182C50.8594 42.342 51.6316 42.342 52.1079 42.8182C52.5842 43.2944 52.5842 44.0666 52.1079 44.5429L47.3514 49.2994C47.3502 50.5425 47.2795 51.353 47.264 51.5148C47.2367 51.8009 47.1758 52.0772 47.0864 52.3404C49.7954 52.0899 53.535 51.2354 56.1677 48.6027C60.6568 44.1136 59.9768 36.4046 59.9456 36.0785Z" fill="white"/>
</g>
<defs>
<clipPath id="clip0">
<rect width="40" height="40" fill="white" transform="translate(20 20)"/>
</clipPath>
</defs>
</svg>
