<svg width="15" height="25" viewBox="0 0 15 25" fill="none" xmlns="http://www.w3.org/2000/svg">
<path d="M14.4448 11.5245L3.31944 0.399387C3.06212 0.141869 2.71863 0 2.35237 0C1.98611 0 1.64262 0.141869 1.38531 0.399387L0.566003 1.21849C0.0328772 1.75222 0.0328772 2.61969 0.566003 3.15262L9.9082 12.4948L0.555637 21.8474C0.298322 22.1049 0.15625 22.4482 0.15625 22.8142C0.15625 23.1807 0.298322 23.524 0.555637 23.7817L1.37494 24.6006C1.63246 24.8581 1.97575 25 2.34201 25C2.70826 25 3.05176 24.8581 3.30907 24.6006L14.4448 13.4653C14.7027 13.207 14.8443 12.8621 14.8435 12.4954C14.8443 12.1273 14.7027 11.7826 14.4448 11.5245Z" fill="black"/>
</svg>
