<svg width="80" height="80" viewBox="0 0 80 80" fill="none" xmlns="http://www.w3.org/2000/svg">
<circle cx="40" cy="40" r="40" fill="#E74A43"/>
<g clip-path="url(#clip0)">
<path d="M54.9145 43.4195C54.4563 37.454 51.6788 33.7156 49.2285 30.4167C46.9596 27.3626 45 24.7253 45 20.8348C45 20.5223 44.825 20.2367 44.5475 20.0935C44.2691 19.9494 43.9347 19.973 43.6816 20.1569C40.0016 22.7902 36.9312 27.2284 35.8586 31.4631C35.114 34.4113 35.0155 37.7257 35.0016 39.9147C31.6032 39.1888 30.8334 34.1054 30.8252 34.05C30.787 33.7863 30.6259 33.5569 30.3915 33.4315C30.1547 33.3079 29.8763 33.2989 29.6363 33.4177C29.458 33.504 25.262 35.636 25.0179 44.1486C25.0008 44.4318 25 44.7158 25 44.9998C25 53.2699 31.7293 59.9988 40 59.9988C40.0114 59.9996 40.0236 60.0012 40.0334 59.9988C40.0366 59.9988 40.0398 59.9988 40.0439 59.9988C48.2943 59.9751 55 53.2553 55 44.9998C55 44.584 54.9145 43.4195 54.9145 43.4195ZM40 58.3322C37.2428 58.3322 35 55.9431 35 53.0063C35 52.9062 34.9992 52.8053 35.0065 52.6816C35.0398 51.4431 35.2751 50.5976 35.533 50.0353C36.0165 51.0736 36.8807 52.0282 38.2845 52.0282C38.7452 52.0282 39.1179 51.6554 39.1179 51.1949C39.1179 50.0085 39.1423 48.6397 39.4377 47.4044C39.7006 46.3091 40.3288 45.1438 41.1248 44.2097C41.4788 45.4222 42.1689 46.4035 42.8427 47.3613C43.8071 48.7316 44.804 50.1484 44.979 52.5644C44.9895 52.7076 45.0002 52.8517 45.0002 53.0063C45 55.943 42.7572 58.3322 40 58.3322Z" fill="white"/>
</g>
<defs>
<clipPath id="clip0">
<rect width="40" height="40" fill="white" transform="translate(20 20)"/>
</clipPath>
</defs>
</svg>
