<svg width="20" height="20" viewBox="0 0 20 20" fill="none" xmlns="http://www.w3.org/2000/svg">
<circle cx="10" cy="10" r="10" fill="white"/>
<g clip-path="url(#clip0)">
<path d="M7.18541 10.492L10.8938 14.2004C10.9796 14.2862 11.0941 14.3335 11.2162 14.3335C11.3383 14.3335 11.4528 14.2862 11.5386 14.2004L11.8117 13.9273C11.9894 13.7494 11.9894 13.4603 11.8117 13.2826L8.69759 10.1686L11.8151 7.05103C11.9009 6.9652 11.9482 6.85076 11.9482 6.72875C11.9482 6.60659 11.9009 6.49216 11.8151 6.40626L11.542 6.13329C11.4562 6.04745 11.3417 6.00016 11.2197 6.00016C11.0976 6.00016 10.9831 6.04745 10.8973 6.13329L7.18541 9.84505C7.09943 9.93116 7.05221 10.0461 7.05248 10.1684C7.05221 10.291 7.09943 10.406 7.18541 10.492Z" fill="black"/>
</g>
<defs>
<clipPath id="clip0">
<rect width="8.33333" height="8.33333" fill="white" transform="translate(13.667 14.3335) rotate(180)"/>
</clipPath>
</defs>
</svg>
