<svg width="80" height="80" viewBox="0 0 80 80" fill="none" xmlns="http://www.w3.org/2000/svg">
<circle cx="40" cy="40" r="40" fill="#4CD0B1"/>
<path d="M30.34 47H26.46L20.76 37.74H20.7L20.78 47H17.46V32.84H21.36L27.04 42.08H27.1L27.02 32.84H30.34V47ZM43.1408 47H33.2608V32.84H42.7808V35.74H36.5608V38.4H42.4408V41.14H36.5608V44.08H43.1408V47ZM64.4492 32.84L60.4092 47H57.0292L54.2292 37.42H54.1692L51.3692 47H47.9692L43.9492 32.84H47.6292L49.8692 42.26H49.9292L52.4492 32.84H56.0092L58.5492 42.26H58.6092L60.8892 32.84H64.4492Z" fill="white"/>
</svg>
