<svg width="25" height="27" viewBox="0 0 25 27" fill="none" xmlns="http://www.w3.org/2000/svg">
<path d="M22.834 25.8722L21.3127 7.57532C21.2712 7.07565 20.8834 6.69292 20.419 6.69292H17.2818V5.16483C17.2818 2.31694 15.1366 0 12.4998 0C9.86313 0 7.71817 2.31694 7.71817 5.16483V6.69292H4.57886C4.11441 6.69292 3.72664 7.07565 3.68513 7.57532L2.15788 25.9442C2.13539 26.2153 2.21938 26.4839 2.38939 26.6847C2.55941 26.8855 2.79977 26.9999 3.05162 26.9999H21.9464C21.9471 26.9999 21.948 26.9999 21.9487 26.9999C22.4444 26.9999 22.8461 26.566 22.8461 26.0308C22.846 25.9769 22.8419 25.9238 22.834 25.8722ZM9.51282 5.16483C9.51282 3.38568 10.8528 1.93822 12.4999 1.93822C14.1472 1.93822 15.4873 3.38568 15.4873 5.16483V6.69292H9.51282V5.16483ZM4.03317 25.0618L5.39925 8.63113H7.71817V10.3642C7.71817 10.8994 8.11981 11.3333 8.6155 11.3333C9.11118 11.3333 9.51282 10.8994 9.51282 10.3642V8.63113H15.4873V10.3642C15.4873 10.8994 15.889 11.3333 16.3846 11.3333C16.8803 11.3333 17.282 10.8994 17.282 10.3642V8.63113H19.5987L20.9648 25.0618H4.03317Z" fill="black"/>
</svg>
