<svg width="216" height="168" viewBox="0 0 216 168" fill="none" xmlns="http://www.w3.org/2000/svg">
<path d="M4.539 86H12.371V29.752C28.836 40.076 37.469 54.761 37.469 72.561V86H45.301V19.072H37.558V44.793C29.904 31.176 18.868 22.543 4.539 19.072V86ZM72.2298 86C72.3188 79.147 72.5858 72.472 73.2978 65.975H99.5528C100.265 72.472 100.532 79.147 100.621 86H108.631C108.631 54.494 102.757 32.956 86.4698 18.004C70.1828 32.956 64.2198 54.494 64.2198 86H72.2298ZM74.5438 58.677C76.4128 47.73 79.7058 38.029 86.4698 28.951C93.2338 38.029 96.5268 47.73 98.3958 58.677H74.5438ZM135.281 86V30.375C145.961 37.139 150.144 45.594 150.144 58.766V67.577H157.62V58.766C157.62 45.594 161.892 37.139 172.572 30.375V86H180.137V19.072C167.588 22.454 158.421 29.752 153.882 39.72C149.343 29.752 140.176 22.454 127.627 19.072V86H135.281ZM202.603 86H210.702V19.072H202.603V86Z" fill="white"/>
<path d="M39.0103 109.25V117.375C36.3442 114.899 33.5936 113.662 30.7583 113.662C28.7059 113.662 26.992 114.201 25.6167 115.28C24.2414 116.402 23.5537 117.946 23.5537 119.914C23.5537 120.782 23.8076 121.649 24.3154 122.517C24.7386 123.321 25.5003 124.167 26.6006 125.056C27.9548 126.198 29.1925 127.129 30.314 127.849C30.991 128.314 31.9009 128.949 33.0435 129.753C34.186 130.557 34.9372 131.086 35.2969 131.34C40.7982 135.17 43.5488 139.486 43.5488 144.289C43.5488 148.881 42.0994 152.626 39.2007 155.524C36.3019 158.423 32.4722 159.873 27.7114 159.873C23.4585 159.873 19.9884 159.248 17.3013 158V150.256C20.6021 152.478 24.0721 153.588 27.7114 153.588C30.3351 153.588 32.5885 152.784 34.4717 151.176C36.3337 149.632 37.2646 147.336 37.2646 144.289C37.2646 142.406 36.5452 140.713 35.1064 139.211C33.6676 137.772 31.6364 136.238 29.0127 134.609C26.4313 133.064 24.6117 131.848 23.5537 130.959C21.5859 129.224 20.0625 127.616 18.9834 126.135C17.862 124.632 17.3013 122.559 17.3013 119.914C17.3013 117.565 17.9043 115.46 19.1104 113.598C20.2952 111.694 21.8822 110.202 23.8711 109.123C25.86 108.023 28.1558 107.441 30.7583 107.377C32.0278 107.377 33.5618 107.547 35.3604 107.885C36.9473 108.245 38.1639 108.7 39.0103 109.25ZM56.314 109.25H62.6934V145.59C62.6934 147.791 63.508 149.674 65.1372 151.24C66.8088 152.806 68.7025 153.588 70.8184 153.588C72.9766 153.588 74.902 152.806 76.5947 151.24C78.2451 149.653 79.0703 147.77 79.0703 145.59V109.25H85.2275V145.59C85.2275 148.108 84.5822 150.478 83.2915 152.7C82.0008 154.9 80.2446 156.646 78.0229 157.937C75.759 159.227 73.3574 159.873 70.8184 159.873C66.8828 159.873 63.4974 158.423 60.6621 155.524C57.7633 152.689 56.314 149.378 56.314 145.59V109.25ZM119.956 109.25V117.375C117.29 114.899 114.539 113.662 111.704 113.662C109.651 113.662 107.937 114.201 106.562 115.28C105.187 116.402 104.499 117.946 104.499 119.914C104.499 120.782 104.753 121.649 105.261 122.517C105.684 123.321 106.446 124.167 107.546 125.056C108.9 126.198 110.138 127.129 111.259 127.849C111.936 128.314 112.846 128.949 113.989 129.753C115.131 130.557 115.882 131.086 116.242 131.34C121.743 135.17 124.494 139.486 124.494 144.289C124.494 148.881 123.045 152.626 120.146 155.524C117.247 158.423 113.417 159.873 108.657 159.873C104.404 159.873 100.934 159.248 98.2466 158V150.256C101.547 152.478 105.017 153.588 108.657 153.588C111.28 153.588 113.534 152.784 115.417 151.176C117.279 149.632 118.21 147.336 118.21 144.289C118.21 142.406 117.491 140.713 116.052 139.211C114.613 137.772 112.582 136.238 109.958 134.609C107.377 133.064 105.557 131.848 104.499 130.959C102.531 129.224 101.008 127.616 99.9287 126.135C98.8073 124.632 98.2466 122.559 98.2466 119.914C98.2466 117.565 98.8496 115.46 100.056 113.598C101.241 111.694 102.827 110.202 104.816 109.123C106.805 108.023 109.101 107.441 111.704 107.377C112.973 107.377 114.507 107.547 116.306 107.885C117.893 108.245 119.109 108.7 119.956 109.25ZM137.259 109.25H143.639V130.959H161.634V109.25H168.014V130.959H177.884V137.211H168.014V158H161.634V137.211H143.639V158H137.259V109.25ZM191.252 109.25H197.632V158H191.252V109.25Z" fill="white"/>
</svg>
