<svg width="20" height="12" viewBox="0 0 20 12" fill="none" xmlns="http://www.w3.org/2000/svg">
<path d="M10.7802 11.5558L19.6803 2.65555C19.8864 2.4497 19.9998 2.1749 19.9998 1.8819C19.9998 1.58889 19.8864 1.3141 19.6803 1.10824L19.0251 0.452802C18.5981 0.0263018 17.9041 0.0263018 17.4778 0.452802L10.004 7.92656L2.52194 0.44451C2.31593 0.238658 2.04129 0.125 1.74845 0.125C1.45528 0.125 1.18065 0.238658 0.974472 0.44451L0.319355 1.09995C0.113342 1.30597 -0.000152588 1.5806 -0.000152588 1.8736C-0.000152588 2.16661 0.113342 2.4414 0.319355 2.64726L9.22758 11.5558C9.43424 11.7621 9.71017 11.8755 10.0035 11.8748C10.298 11.8755 10.5737 11.7621 10.7802 11.5558Z" fill="black"/>
</svg>
