<svg width="32" height="40" viewBox="0 0 32 40" fill="none" xmlns="http://www.w3.org/2000/svg">
<path d="M28.9589 12.5978C28.8787 11.6349 28.4775 10.7523 27.8356 10.1103C27.1936 9.46841 26.3511 9.0672 25.3481 9.0672H23.2217V7.22167C23.2217 5.21565 22.4193 3.41023 21.0953 2.12638C19.7714 0.802407 17.9659 0 16.0001 0C13.994 0 12.1886 0.802407 10.9048 2.12638C9.58079 3.41023 8.77839 5.21565 8.77839 7.22167V9.0672H6.65201C5.649 9.0672 4.80647 9.46841 4.16454 10.1103C3.52262 10.7523 3.12141 11.6349 3.04117 12.5978L0.914795 36.349C0.914795 36.4694 0.914795 36.5898 0.914795 36.6299C0.914795 37.5125 1.27588 38.3551 1.9178 38.9569C2.51961 39.5186 3.32202 39.9198 4.16454 40H4.20466C4.32503 40 4.44539 40 4.52563 40H27.4745C27.5547 40 27.6751 40 27.7954 40C28.6781 39.9198 29.4805 39.5186 30.0823 38.9569C30.7242 38.3551 31.0853 37.5125 31.0853 36.5898C31.0853 36.5095 31.0853 36.4293 31.0853 36.3089L28.9589 12.5978ZM10.985 7.22167C10.985 5.81745 11.5467 4.57372 12.4695 3.65095C13.3922 2.72818 14.636 2.1665 16.0402 2.1665C17.4444 2.1665 18.6881 2.72818 19.6109 3.65095C20.5337 4.57372 21.0953 5.81745 21.0953 7.22167V9.0672H10.985V7.22167ZM28.8386 36.6299C28.8386 36.9509 28.7182 37.2317 28.4775 37.4323C28.2368 37.673 27.8757 37.8335 27.5547 37.8736C27.5547 37.8736 27.5146 37.8736 27.4344 37.8736H4.52563C4.44539 37.8736 4.40527 37.8736 4.40527 37.8736H4.36515C4.00406 37.8335 3.6831 37.673 3.44238 37.4323C3.20166 37.2317 3.08129 36.9509 3.08129 36.6299V36.5095L5.20767 12.7984C5.24779 12.3571 5.4484 11.9559 5.72924 11.675C5.96996 11.4343 6.29092 11.2738 6.65201 11.2738H8.77839V16.1685C8.77839 16.7703 9.25983 17.2518 9.86164 17.2518C10.4634 17.2518 10.9449 16.7703 10.9449 16.1685V11.2738H20.975V16.1685C20.975 16.7703 21.4564 17.2518 22.0582 17.2518C22.66 17.2518 23.1415 16.7703 23.1415 16.1685V11.2738H25.2679C25.6289 11.2738 25.9499 11.4343 26.1906 11.675C26.4715 11.9559 26.6721 12.3571 26.7122 12.7984L28.8386 36.5497V36.6299Z" fill="white"/>
</svg>
