<svg width="32" height="32" viewBox="0 0 32 32" fill="none" xmlns="http://www.w3.org/2000/svg">
<g clip-path="url(#clip0)">
<path d="M16.0005 6.66699C7.78589 6.66699 0.466008 15.2055 0.158013 15.5695C-0.0526711 15.8175 -0.0526711 16.1815 0.158013 16.4308C0.34201 16.6481 3.03266 19.7721 6.9126 22.2601L11.0912 18.0814C10.8192 17.4415 10.6672 16.7388 10.6672 16.0002C10.6672 13.0589 13.0592 10.6669 16.0005 10.6669C16.7391 10.6669 17.4417 10.8189 18.0817 11.0909L21.5177 7.65498C19.843 7.0563 18.0044 6.66699 16.0005 6.66699Z" fill="#959595"/>
<path d="M31.8815 15.6201C31.7108 15.3735 28.8802 11.3895 24.1216 8.82155L27.8055 5.13761C28.0655 4.87761 28.0655 4.45493 27.8055 4.19494C27.5455 3.93494 27.1229 3.93494 26.8629 4.19494L4.19658 26.8613C3.93659 27.1213 3.93659 27.544 4.19658 27.804C4.32589 27.9347 4.49658 28 4.66726 28C4.83795 28 5.00857 27.9347 5.13926 27.8053L9.31919 23.6254C11.3792 24.6307 13.6511 25.3334 16.0004 25.3334C24.215 25.3334 31.5348 16.7948 31.8428 16.4308C32.0361 16.2001 32.0535 15.8681 31.8815 15.6201ZM16.0004 21.3334C14.7697 21.3334 13.6511 20.8974 12.7471 20.1961L20.1963 12.7469C20.8976 13.6509 21.3336 14.7696 21.3336 16.0002C21.3336 18.9415 18.9417 21.3334 16.0004 21.3334Z" fill="#959595"/>
</g>
<defs>
<clipPath id="clip0">
<rect width="32" height="32" fill="white"/>
</clipPath>
</defs>
</svg>
