<svg width="27" height="27" viewBox="0 0 27 27" fill="none" xmlns="http://www.w3.org/2000/svg">
<path d="M26.2651 19.8153L22.4972 16.0473C21.1515 14.7017 18.8638 15.24 18.3255 16.9893C17.9218 18.2005 16.5761 18.8734 15.365 18.6042C12.6736 17.9313 9.04027 14.4325 8.36743 11.6066C7.96372 10.3954 8.77114 9.04971 9.98226 8.64606C11.7317 8.10778 12.2699 5.82011 10.9242 4.47442L7.15631 0.706487C6.07976 -0.235496 4.46493 -0.235496 3.52295 0.706487L0.966141 3.2633C-1.59067 5.95468 1.23528 13.0868 7.56002 19.4116C13.8848 25.7363 21.0169 28.6969 23.7083 26.0055L26.2651 23.4486C27.2071 22.3721 27.2071 20.7573 26.2651 19.8153Z" fill="white"/>
</svg>
