<svg width="30" height="30" viewBox="0 0 30 30" fill="none" xmlns="http://www.w3.org/2000/svg">
<path d="M23.8477 17.6367C23.3627 17.6367 22.9688 18.0307 22.9688 18.5156C22.9688 19.0005 23.3627 19.3945 23.8477 19.3945C24.3326 19.3945 24.7266 19.0005 24.7266 18.5156C24.7266 18.0307 24.3326 17.6367 23.8477 17.6367Z" fill="white" fill-opacity="0.65"/>
<path d="M29.1211 5.33203H8.86201V7.96875C8.86201 8.45455 8.46891 8.84766 7.98311 8.84766C7.4973 8.84766 7.1042 8.45455 7.1042 7.96875V5.33203H0.878906C0.393105 5.33203 0 5.72514 0 6.21094V11.4844C0 11.9702 0.393105 12.3633 0.878906 12.3633C2.33285 12.3633 3.51562 13.5461 3.51562 15C3.51562 16.4539 2.33285 17.6367 0.878906 17.6367C0.393105 17.6367 0 18.0298 0 18.5156V23.7891C0 24.2749 0.393105 24.668 0.878906 24.668H7.03125V22.0312C7.03125 21.5454 7.42436 21.1523 7.91016 21.1523C8.39596 21.1523 8.78906 21.5454 8.78906 22.0312V24.668H29.1211C29.6069 24.668 30 24.2749 30 23.7891V6.21094C30 5.72514 29.6069 5.33203 29.1211 5.33203ZM8.78906 18.5156C8.78906 19.0014 8.39596 19.3945 7.91016 19.3945C7.42436 19.3945 7.03125 19.0014 7.03125 18.5156V16.7578C7.03125 16.272 7.42436 15.8789 7.91016 15.8789C8.39596 15.8789 8.78906 16.272 8.78906 16.7578V18.5156ZM8.78906 13.2422C8.78906 13.728 8.39596 14.1211 7.91016 14.1211C7.42436 14.1211 7.03125 13.728 7.03125 13.2422V11.4844C7.03125 10.9986 7.42436 10.6055 7.91016 10.6055C8.39596 10.6055 8.78906 10.9986 8.78906 11.4844V13.2422ZM14.1797 11.4844C14.1797 10.0304 15.3625 8.84766 16.8164 8.84766C18.2704 8.84766 19.4531 10.0304 19.4531 11.4844C19.4531 12.9383 18.2704 14.1211 16.8164 14.1211C15.3625 14.1211 14.1797 12.9383 14.1797 11.4844ZM16.3289 21.0047C15.9247 20.7352 15.8156 20.1902 16.0852 19.7859L23.1164 9.239C23.3851 8.83477 23.9301 8.7266 24.3352 8.99525C24.7395 9.26479 24.8485 9.80977 24.579 10.2141L17.5477 20.7609C17.2826 21.1592 16.7396 21.2769 16.3289 21.0047ZM23.8477 21.1523C22.3937 21.1523 21.2109 19.9696 21.2109 18.5156C21.2109 17.0617 22.3937 15.8789 23.8477 15.8789C25.3016 15.8789 26.4844 17.0617 26.4844 18.5156C26.4844 19.9696 25.3016 21.1523 23.8477 21.1523Z" fill="white" fill-opacity="0.65"/>
<path d="M16.8164 10.6055C16.3315 10.6055 15.9375 10.9995 15.9375 11.4844C15.9375 11.9693 16.3315 12.3633 16.8164 12.3633C17.3013 12.3633 17.6953 11.9693 17.6953 11.4844C17.6953 10.9995 17.3013 10.6055 16.8164 10.6055Z" fill="white" fill-opacity="0.65"/>
</svg>
