<svg width="30" height="30" viewBox="0 0 30 30" fill="none" xmlns="http://www.w3.org/2000/svg">
<g clip-path="url(#clip0)">
<path d="M20.15 2.41099L6.53625 9.38099L1.125 6.71849L14.4988 0.114741C14.7988 -0.0377588 15.1588 -0.0377588 15.4738 0.114741L20.15 2.41099Z" fill="white" fill-opacity="0.6"/>
<path d="M28.8598 6.7188L15.0073 13.5813L9.81982 11.025L9.06982 10.6438L22.6986 3.67505L23.4486 4.05505L28.8598 6.7188Z" fill="white" fill-opacity="0.6"/>
<path d="M13.8975 15.5588L13.8825 30L0.615 23.0763C0.24 22.8788 0 22.4825 0 22.0563V8.69629L5.6225 11.4663V16.3363C5.6225 16.96 6.1325 17.4775 6.7475 17.4775C7.3625 17.4775 7.8725 16.96 7.8725 16.3363V12.5925L8.6225 12.9575L13.8975 15.5588Z" fill="white" fill-opacity="0.6"/>
<path d="M29.9848 8.71124L16.1473 15.5437L16.1323 29.985L29.9998 22.7437L29.9848 8.71124Z" fill="white" fill-opacity="0.6"/>
</g>
<defs>
<clipPath id="clip0">
<rect width="30" height="30" fill="white"/>
</clipPath>
</defs>
</svg>
