<svg width="30" height="30" viewBox="0 0 30 30" fill="none" xmlns="http://www.w3.org/2000/svg">
<path d="M24.6644 10.5398C24.6645 10.5619 24.6679 10.5833 24.6679 10.6055C24.6679 17.3904 18.7541 22.9102 11.4843 22.9102H7.74414C9.30918 27.0525 13.5363 30 18.5155 30H29.121C29.4824 30 29.8068 29.7786 29.939 29.4421C30.0712 29.1057 29.9836 28.7229 29.7184 28.4766L27.3143 26.2467C29.0532 24.3472 29.9999 21.9085 29.9999 19.3945C29.9999 15.7525 27.886 12.4498 24.6644 10.5398Z" fill="white"/>
<path d="M0.281543 19.6288C0.0163476 19.8752 -0.07125 20.258 0.0609375 20.5944C0.193125 20.9309 0.517559 21.1523 0.878906 21.1523H11.4844C17.7844 21.1523 22.9102 16.4214 22.9102 10.6055C22.9102 4.78957 17.7844 0 11.4844 0C5.18438 0 0 4.78957 0 10.6055C0 13.1194 0.946699 15.4995 2.68564 17.3989L0.281543 19.6288ZM7.29492 5.33203H13.7109C14.1967 5.33203 14.7363 5.72514 14.7363 6.21094C14.7363 6.69674 14.1967 7.08984 13.7109 7.08984H7.29492C6.80912 7.08984 6.21094 6.69674 6.21094 6.21094C6.21094 5.72514 6.80912 5.33203 7.29492 5.33203ZM7.29492 8.84766H13.7109C14.1967 8.84766 14.7363 9.24076 14.7363 9.72656C14.7363 10.2124 14.1967 10.6055 13.7109 10.6055H7.29492C6.80912 10.6055 6.21094 10.2124 6.21094 9.72656C6.21094 9.24076 6.80912 8.84766 7.29492 8.84766ZM7.29492 12.3633H16.7578C17.2436 12.3633 17.6367 12.7564 17.6367 13.2422C17.6367 13.728 17.2436 14.1211 16.7578 14.1211H7.29492C6.80912 14.1211 6.21094 13.728 6.21094 13.2422C6.21094 12.7564 6.80912 12.3633 7.29492 12.3633Z" fill="white"/>
</svg>
