<svg width="30" height="30" viewBox="0 0 30 30" fill="none" xmlns="http://www.w3.org/2000/svg">
<g clip-path="url(#clip0)">
<path d="M15.0062 7.94116C13.3646 7.94116 11.9812 9.06763 11.5884 10.5882H18.4239C18.0312 9.06763 16.6477 7.94116 15.0062 7.94116Z" fill="white" fill-opacity="0.65"/>
<path d="M3.5293 0V30H26.4705V0H3.5293ZM14.1175 25.5882H7.05871V23.8235H14.1175V25.5882ZM14.1175 21.1765H7.05871V19.4118H14.1175V21.1765ZM22.9411 25.5882H17.6469V23.8235H22.9411V25.5882ZM22.9411 21.1765H17.6469V19.4118H22.9411V21.1765ZM22.9411 16.7647H7.05871V15H22.9411V16.7647ZM22.0587 12.3529H20.294H9.70577H7.94106V10.5882H9.77971C10.1527 8.37465 11.9039 6.62341 14.1175 6.25041V4.41176H15.8822V6.25041C18.0958 6.62341 19.8471 8.37465 20.2201 10.5882H22.0587V12.3529Z" fill="white" fill-opacity="0.65"/>
</g>
<defs>
<clipPath id="clip0">
<rect width="30" height="30" fill="white"/>
</clipPath>
</defs>
</svg>
