<svg width="458" height="458" viewBox="0 0 458 458" fill="none" xmlns="http://www.w3.org/2000/svg">
<g filter="url(#filter0_f_2926_95)">
<circle cx="229" cy="229" r="82" fill="white"/>
</g>
<path d="M291.155 262.226C283.294 272.453 269.923 276.549 253.522 277.278C233.748 279.393 214.646 279.686 196.283 277.983C191.871 277.576 187.508 276.76 183.283 275.467C181.686 274.984 180.113 274.43 178.561 273.806C153.52 263.73 154.834 244.525 167.74 208.775C175.852 189.278 186.121 173.283 202.921 164.955C217.491 157.732 234.558 157.858 249.363 164.584C251.231 165.434 253.037 166.365 254.775 167.378C277.224 180.402 289.058 206.419 296.38 237.155C298.454 245.869 296.615 255.123 291.155 262.226Z" fill="#344C34"/>
<g opacity="0.4">
<path opacity="0.4" d="M287.457 261.856C279.595 272.083 266.225 276.178 249.823 276.908C230.628 278.96 212.066 279.297 194.196 277.757C190.496 277.309 186.841 276.555 183.282 275.467C291.992 283.561 275.045 254.53 245.304 183.822C244.586 182.122 245.834 180.251 247.681 180.236C258.867 180.136 258.116 174.381 256.444 170.512C275.458 184.376 285.966 208.598 292.683 236.785C294.756 245.499 292.918 254.753 287.457 261.856Z" fill="#222222"/>
</g>
<g opacity="0.55">
<path opacity="0.55" d="M259.881 170.648C257.356 169.008 254.686 167.544 251.869 166.263C237.064 159.537 219.999 159.411 205.429 166.634C188.627 174.966 178.357 190.961 170.248 210.454C159.479 240.281 156.779 258.59 170.718 269.691C153.123 258.882 155.389 240.142 166.94 208.149C175.052 188.653 185.321 172.658 202.121 164.329C216.691 157.106 233.758 157.232 248.563 163.958C252.642 165.812 256.406 168.057 259.881 170.648Z" fill="white"/>
</g>
<path d="M258.117 235.016C262.046 247.44 261.519 255.372 257.74 260.027C261.357 265.978 256.46 268.012 252.919 265.023C238.38 272.128 197.22 272.71 179.197 263.869C175.304 261.958 172.489 259.608 171.257 256.788C165.342 257.837 166.963 254 168.62 251.74C165.019 252.051 162.141 246.467 168.846 243.755C174.171 221.046 180.342 199.932 192.049 189.213C186.706 184.738 191.371 183.036 196.192 184.467C190.714 177.853 197.473 174.975 201.842 179.947C202.867 179.381 203.888 178.871 204.907 178.429H204.91C212.871 174.948 220.667 175.211 228.284 179.496C230.619 175.419 232.09 176.181 232.879 180.777L239.057 186.201C249.396 183.299 251.93 186.65 250.309 189.53C249.845 190.365 249.028 191.161 247.949 191.751C246.801 192.384 245.358 192.785 243.728 192.755C248.079 201.617 251.587 211.953 254.576 223.189C260.271 221.674 262.034 226.278 256.308 228.086C264.014 227.597 264.273 234.865 258.117 235.016Z" fill="white"/>
<path d="M201.49 206.867C202.945 209.969 201.98 212.14 197.07 212.793C195.128 215.706 193.317 219.709 191.546 224.043C195.414 225.527 194.852 227.139 189.436 228.889C191.299 230.155 191.092 231.385 188.909 232.581C188.543 238.422 189.879 242.724 193.555 244.911C195.369 243.537 196.035 245.042 196.191 247.824C201.668 252.632 208.166 254.212 215.553 252.984C214.216 247.454 218.349 244.697 220.148 252.607C222.58 250.009 224.525 248.488 223.801 252.871C230.811 251.607 236.505 248.787 238.454 241.533C234.273 241.081 234.838 236.674 238.944 237.315C235.51 234.89 233.639 232.892 239.546 233.021C239.029 224.936 237.152 217.906 232.804 212.794C229.358 213.083 227.506 212.461 230.243 209.215C224.448 210.051 220.249 209.918 224.555 204.62C216.091 198.53 208.336 198.685 201.49 206.867Z" fill="#FF6D00"/>
<g opacity="0.4">
<g opacity="0.4">
<path opacity="0.4" d="M193.875 233.172C192.614 233.172 191.353 233.021 190.124 232.713L190.49 231.252C194.526 232.264 198.941 231.399 202.298 228.942C203.936 227.743 205.103 226.308 205.675 224.794C206.323 223.076 206.175 221.184 205.29 219.855C204.43 218.565 202.819 217.674 200.869 217.41C199.029 217.16 197.115 217.446 195.264 217.724L195.041 216.234C196.997 215.942 199.019 215.64 201.071 215.917C203.449 216.239 205.444 217.37 206.543 219.02C207.693 220.745 207.901 223.162 207.084 225.325C206.41 227.113 205.062 228.784 203.188 230.156C200.497 232.128 197.19 233.172 193.875 233.172Z" fill="white"/>
</g>
<g opacity="0.4">
<path opacity="0.4" d="M190.648 241.739L190.281 240.278C194.334 239.262 198.525 238.212 202.357 236.443C206.625 234.472 209.827 231.879 211.873 228.737C214.222 225.13 214.86 220.697 213.54 217.168C211.821 212.572 207.286 209.71 202.392 206.946L203.133 205.634C208.278 208.54 213.055 211.569 214.952 216.64C216.436 220.609 215.74 225.559 213.136 229.559C210.933 232.943 207.519 235.719 202.989 237.811C199.028 239.639 194.768 240.707 190.648 241.739Z" fill="white"/>
</g>
<g opacity="0.4">
<path opacity="0.4" d="M205.11 252.851C203.844 246.941 205.953 240.538 210.484 236.539C211.914 235.276 213.542 234.271 215.115 233.3C216.528 232.427 217.99 231.524 219.257 230.458C222.198 227.983 224.213 224.541 224.931 220.765C225.649 216.989 225.038 213.048 223.211 209.667L224.537 208.951C226.528 212.636 227.193 216.932 226.411 221.047C225.628 225.162 223.432 228.913 220.227 231.611C218.875 232.749 217.365 233.681 215.906 234.582C214.316 235.563 212.815 236.49 211.48 237.668C207.414 241.258 205.446 247.232 206.582 252.535L205.11 252.851Z" fill="white"/>
</g>
<g opacity="0.4">
<path opacity="0.4" d="M217.088 248.318C215.752 245.591 216.295 241.992 218.47 239.148C220.419 236.601 223.298 234.951 225.858 233.673C226.378 233.413 226.902 233.16 227.427 232.906C229.524 231.89 231.692 230.84 233.522 229.413C236.021 227.464 237.531 224.952 237.665 222.521L239.169 222.603C239.011 225.469 237.291 228.384 234.449 230.601C232.493 232.126 230.251 233.212 228.083 234.261C227.564 234.513 227.045 234.764 226.531 235.02C224.125 236.222 221.429 237.759 219.667 240.062C218.166 242.024 217.205 245.132 218.441 247.654L217.088 248.318Z" fill="white"/>
</g>
<g opacity="0.4">
<path opacity="0.4" d="M227.258 252.051C225.058 248.772 224.817 244.222 226.658 240.728C228.499 237.234 232.388 234.861 236.337 234.821L236.352 236.328C232.941 236.362 229.581 238.413 227.991 241.43C226.401 244.448 226.609 248.379 228.509 251.212L227.258 252.051Z" fill="white"/>
</g>
</g>
<g opacity="0.35">
<path opacity="0.35" d="M204.126 213.334C202.039 216.19 200.722 219.789 201.329 223.273C201.581 224.716 202.492 226.343 203.957 226.33C205.414 226.318 206.267 224.749 206.96 223.467C208.581 220.47 211.007 217.914 213.916 216.139C215.612 215.103 217.664 214.086 218.106 212.148C218.498 210.427 217.374 208.71 215.995 207.776C214.727 206.918 213.021 207.02 211.548 207.413C208.407 208.251 205.955 210.831 204.126 213.334Z" fill="white"/>
</g>
<g opacity="0.35">
<path opacity="0.35" d="M200.054 235.649C200.35 237.64 201.463 239.498 203.081 240.696C203.645 241.114 204.293 241.461 204.993 241.509C205.694 241.556 206.452 241.245 206.775 240.621C207.065 240.06 206.961 239.385 206.849 238.763C206.444 236.503 206.038 234.243 205.632 231.984C205.492 231.2 205.322 230.36 204.745 229.811C203.759 228.874 201.982 229.311 201.22 230.285C200.119 231.691 199.801 233.938 200.054 235.649Z" fill="white"/>
</g>
<path d="M220.611 280.285C212.254 280.285 204.093 279.918 196.172 279.185C189.724 278.588 183.647 277.155 178.11 274.926C165.465 269.837 158.986 262.252 157.722 251.054C156.633 241.399 159.29 228.632 166.607 208.365C166.614 208.347 166.62 208.329 166.628 208.311C176.31 185.04 187.338 171.335 202.386 163.875C217.072 156.593 234.376 156.451 249.862 163.486C272.974 173.985 288.128 197.305 297.551 236.875C299.748 246.098 297.765 255.606 292.11 262.962C284.719 272.576 272.127 277.653 253.613 278.48C242.354 279.683 231.322 280.285 220.611 280.285ZM196.394 276.785C214.317 278.445 233.494 278.207 253.394 276.08C253.418 276.077 253.443 276.075 253.468 276.074C271.249 275.285 283.264 270.516 290.2 261.493C295.409 254.716 297.235 245.947 295.207 237.434C285.97 198.648 271.244 175.848 248.865 165.682C234.042 158.948 217.491 159.077 203.457 166.035C188.974 173.216 178.305 186.532 168.865 209.211C161.689 229.093 159.074 241.526 160.119 250.785C161.288 261.147 167.115 267.903 179.011 272.691C184.331 274.832 190.179 276.209 196.394 276.785Z" fill="#222222"/>
<path d="M218.084 271.483C204.192 271.483 191.345 269.669 182.58 266.447C176.491 264.208 172.484 261.353 170.651 257.95C169.371 258.112 167.32 258.15 166.415 256.695C165.646 255.459 166.147 253.859 166.852 252.555C165.409 252.051 164.248 250.832 163.873 249.266C163.404 247.31 164.251 244.68 167.941 242.996C172.657 222.936 178.695 200.791 190.498 189.231C188.333 187.097 188.406 185.584 188.903 184.657C189.686 183.2 191.739 182.776 193.897 182.96C192.5 180.297 193.078 178.345 194.298 177.304C195.994 175.856 199.328 176.02 202.048 178.637C210.926 173.954 219.616 173.77 227.904 178.089C228.769 176.76 229.873 175.576 231.22 175.812C232.835 176.098 233.486 178.25 233.853 180.227L239.327 185.033C245.154 183.481 249.298 183.75 251.027 185.804C251.935 186.881 252.068 188.315 251.39 189.739C250.575 191.453 248.407 193.256 245.357 193.704C249.04 201.49 252.313 210.757 255.335 221.946C258.462 221.431 260.332 222.683 260.773 224.201C261.059 225.185 260.774 226.355 259.731 227.373C261.102 227.781 262.179 228.522 262.844 229.551C263.634 230.773 263.709 232.251 263.047 233.505C262.388 234.752 261.129 235.597 259.5 235.923C262.85 247.084 262.687 255.015 259.004 260.111C261.156 264.113 259.45 266.046 258.848 266.562C257.332 267.859 254.865 267.707 252.787 266.252C245.986 269.35 233.87 271.293 220.139 271.469C219.452 271.478 218.766 271.483 218.084 271.483ZM171.258 255.733C171.671 255.733 172.054 255.976 172.224 256.365C173.614 259.549 177.343 262.274 183.309 264.467C203.029 271.716 239.574 270.371 252.457 264.076C252.832 263.893 253.281 263.949 253.6 264.218C255.095 265.48 256.746 265.586 257.478 264.96C258.3 264.256 258.056 262.576 256.84 260.575C256.609 260.194 256.642 259.709 256.923 259.363C260.643 254.779 260.706 246.695 257.113 235.334C257.013 235.018 257.067 234.673 257.26 234.404C257.453 234.134 257.761 233.97 258.093 233.962C259.591 233.926 260.718 233.401 261.183 232.52C261.489 231.941 261.449 231.277 261.074 230.697C260.352 229.58 258.597 229 256.377 229.138C255.845 229.176 255.371 228.803 255.273 228.279C255.176 227.755 255.484 227.24 255.993 227.079C258.155 226.397 258.906 225.33 258.749 224.79C258.573 224.183 257.211 223.578 254.849 224.207C254.578 224.279 254.291 224.241 254.049 224.101C253.807 223.96 253.63 223.73 253.558 223.459C250.315 211.276 246.791 201.384 242.782 193.218C242.621 192.888 242.642 192.498 242.839 192.187C243.036 191.878 243.375 191.702 243.748 191.699C246.592 191.757 248.791 190.295 249.487 188.832C249.707 188.37 249.874 187.705 249.416 187.162C248.501 186.077 245.375 185.521 239.344 187.214C239 187.311 238.631 187.227 238.363 186.992L232.186 181.568C232.004 181.408 231.883 181.191 231.842 180.954C231.453 178.695 230.997 178.065 230.852 177.915C230.682 178.003 230.132 178.391 229.201 180.019C228.914 180.521 228.274 180.698 227.769 180.414C219.556 175.796 211.243 175.945 202.355 180.87C201.922 181.11 201.379 181.016 201.052 180.643C199.005 178.314 196.569 178.139 195.668 178.908C194.704 179.731 195.229 181.649 197.006 183.794C197.303 184.151 197.33 184.661 197.074 185.048C196.818 185.435 196.338 185.609 195.894 185.477C193.042 184.631 191.038 185.143 190.763 185.655C190.598 185.961 190.987 186.945 192.728 188.404C192.961 188.599 193.099 188.885 193.105 189.189C193.112 189.494 192.987 189.785 192.763 189.991C180.745 200.996 174.647 223.638 169.875 243.995C169.797 244.329 169.561 244.604 169.244 244.732C166.797 245.722 165.557 247.233 165.926 248.774C166.208 249.95 167.349 250.792 168.532 250.689C168.942 250.656 169.339 250.862 169.542 251.223C169.745 251.584 169.718 252.03 169.473 252.364C168.254 254.025 167.999 255.245 168.207 255.58C168.349 255.807 169.112 256.097 171.074 255.749C171.135 255.738 171.197 255.733 171.258 255.733Z" fill="#222222"/>
<path d="M210.94 254.433C205.083 254.433 199.904 252.486 195.497 248.616C195.284 248.43 195.155 248.165 195.14 247.883C195.044 246.188 194.779 245.628 194.672 245.467C194.59 245.496 194.435 245.568 194.193 245.752C193.851 246.01 193.386 246.037 193.017 245.818C189.183 243.538 187.447 239.063 187.858 232.515C187.881 232.155 188.087 231.83 188.404 231.656C189.41 231.106 189.644 230.706 189.649 230.599C189.653 230.52 189.516 230.219 188.845 229.763C188.512 229.536 188.337 229.139 188.394 228.741C188.451 228.342 188.731 228.01 189.113 227.887C192.117 226.916 192.812 226.233 192.961 226.027C192.847 225.889 192.446 225.518 191.169 225.028C190.905 224.926 190.692 224.722 190.579 224.462C190.466 224.202 190.464 223.907 190.571 223.644C192.047 220.034 194.019 215.471 196.194 212.209C196.362 211.956 196.631 211.788 196.933 211.748C199.049 211.467 200.407 210.879 200.86 210.049C201.202 209.422 201.094 208.503 200.537 207.315C200.363 206.944 200.42 206.505 200.683 206.191C207.631 197.887 215.87 197.071 225.173 203.764C225.409 203.934 225.564 204.193 225.603 204.481C225.641 204.769 225.559 205.06 225.375 205.285C223.588 207.485 223.859 208.113 223.862 208.118C223.946 208.265 224.638 208.959 230.094 208.172C230.528 208.11 230.954 208.321 231.166 208.704C231.379 209.086 231.333 209.561 231.051 209.895C230.177 210.932 230.016 211.437 229.988 211.6C230.157 211.689 230.785 211.905 232.718 211.743C233.057 211.713 233.389 211.852 233.61 212.111C237.727 216.953 240.014 223.77 240.601 232.954C240.619 233.248 240.514 233.538 240.31 233.751C240.106 233.965 239.823 234.092 239.525 234.076C238.025 234.043 237.281 234.163 236.933 234.26C237.19 234.594 237.852 235.252 239.554 236.454C239.954 236.737 240.107 237.257 239.924 237.711C239.74 238.165 239.267 238.434 238.783 238.357C237.862 238.214 237.115 238.38 236.786 238.802C236.624 239.01 236.592 239.26 236.696 239.505C236.912 240.016 237.612 240.383 238.569 240.486C238.876 240.519 239.152 240.684 239.326 240.939C239.5 241.193 239.554 241.511 239.475 241.808C237.119 250.578 229.51 252.915 223.991 253.91C223.653 253.972 223.307 253.865 223.063 253.624C222.819 253.383 222.707 253.039 222.763 252.701C222.858 252.123 222.893 251.718 222.9 251.439C222.527 251.72 221.914 252.267 220.92 253.33C220.654 253.614 220.251 253.729 219.875 253.627C219.498 253.525 219.209 253.223 219.122 252.843C218.45 249.888 217.513 248.876 217.111 248.754C217.066 248.739 217.026 248.728 216.923 248.826C216.517 249.208 216.066 250.609 216.58 252.738C216.649 253.023 216.596 253.323 216.435 253.568C216.273 253.812 216.017 253.978 215.728 254.026C214.085 254.297 212.488 254.433 210.94 254.433ZM197.215 247.313C202.036 251.4 207.643 252.973 214.317 252.101C214.044 250.032 214.458 248.248 215.473 247.289C216.105 246.694 216.925 246.49 217.724 246.734C218.94 247.104 219.946 248.419 220.675 250.57C222.049 249.277 223.074 248.734 224.025 249.203C224.833 249.602 225.04 250.515 225.007 251.555C231.628 250.098 235.429 247.199 237.111 242.323C235.98 241.953 235.146 241.258 234.752 240.326C234.349 239.373 234.487 238.317 235.122 237.503C235.426 237.114 235.816 236.808 236.274 236.59C235.013 235.481 234.429 234.528 234.756 233.536C235.152 232.332 236.658 232.013 238.414 231.965C237.771 224.076 235.779 218.146 232.34 213.884C230.545 213.992 228.75 213.855 228.089 212.575C227.752 211.924 227.839 211.217 228.121 210.538C225.025 210.834 222.844 210.597 222.027 209.158C221.277 207.836 222.086 206.2 223.047 204.855C215.258 199.64 208.593 200.363 202.718 207.055C203.315 208.613 203.313 209.958 202.711 211.059C201.946 212.46 200.303 213.348 197.695 213.767C195.905 216.562 194.242 220.295 192.918 223.483C194.05 224.033 195.134 224.843 195.101 226.069C195.067 227.316 193.934 228.323 191.374 229.323C191.652 229.764 191.78 230.223 191.757 230.699C191.712 231.627 191.114 232.449 189.934 233.201C189.706 238.329 190.897 241.761 193.563 243.657C194.278 243.284 194.942 243.236 195.544 243.515C196.756 244.075 197.094 245.766 197.215 247.313ZM193.002 226.085H193.005H193.002Z" fill="#222222"/>
<path d="M200.689 207.551L198.938 204.574C198.809 204.355 198.882 204.074 199.1 203.945C199.271 203.844 199.48 203.867 199.624 203.986L202.293 206.181C202.75 206.558 202.815 207.232 202.439 207.689C202.064 208.146 201.388 208.211 200.932 207.836C200.833 207.754 200.751 207.655 200.689 207.551Z" fill="#222222"/>
<path d="M196.945 213.839L193.878 212.864C193.636 212.787 193.501 212.529 193.578 212.286C193.637 212.101 193.803 211.98 193.985 211.966L197.196 211.745C197.788 211.704 198.301 212.151 198.341 212.742C198.382 213.334 197.935 213.846 197.344 213.887C197.206 213.897 197.069 213.878 196.945 213.839Z" fill="#222222"/>
<path d="M223.882 203.807L226.489 202.425C226.715 202.306 226.994 202.391 227.114 202.617C227.202 202.784 227.177 202.982 227.067 203.121L225.23 205.43C224.859 205.896 224.181 205.973 223.716 205.602C223.25 205.232 223.173 204.554 223.543 204.089C223.637 203.97 223.756 203.875 223.882 203.807Z" fill="#222222"/>
<path d="M232.438 211.803L235.284 211.389C235.537 211.352 235.772 211.527 235.809 211.78C235.835 211.965 235.748 212.142 235.6 212.236L233.172 213.781C232.67 214.101 232.003 213.952 231.684 213.45C231.363 212.947 231.512 212.28 232.015 211.96C232.145 211.877 232.293 211.825 232.438 211.803Z" fill="#222222"/>
<path d="M238.505 240.48L242.921 241.295C243.169 241.341 243.332 241.579 243.287 241.827C243.249 242.033 243.077 242.181 242.878 242.198L238.404 242.587C237.818 242.638 237.302 242.204 237.252 241.619C237.201 241.033 237.634 240.518 238.22 240.466C238.316 240.458 238.415 240.464 238.505 240.48Z" fill="#222222"/>
<path d="M239.791 231.993L242.024 233.144C242.253 233.262 242.343 233.543 242.225 233.771C242.143 233.93 241.982 234.022 241.815 234.024L239.303 234.045C238.703 234.05 238.212 233.568 238.207 232.968C238.202 232.369 238.684 231.878 239.284 231.873C239.465 231.871 239.64 231.916 239.791 231.993Z" fill="#222222"/>
<path d="M216.527 252.579L217.025 255.359C217.07 255.61 216.903 255.851 216.651 255.895C216.468 255.928 216.29 255.847 216.19 255.704L214.578 253.386C214.238 252.896 214.359 252.223 214.848 251.883C215.338 251.543 216.01 251.664 216.351 252.153C216.441 252.284 216.5 252.433 216.527 252.579Z" fill="#222222"/>
<path d="M194.328 245.629L192.229 247.001C192.014 247.142 191.726 247.082 191.585 246.867C191.488 246.718 191.487 246.532 191.567 246.386L192.783 244.193C193.074 243.668 193.735 243.479 194.261 243.77C194.785 244.061 194.975 244.722 194.684 245.247C194.596 245.405 194.47 245.536 194.328 245.629Z" fill="#222222"/>
<path d="M202.854 179.647L202.929 182.028C202.937 182.286 202.734 182.501 202.477 182.509C202.302 182.514 202.147 182.423 202.062 182.283L200.831 180.244C200.52 179.729 200.685 179.059 201.201 178.747C201.716 178.436 202.387 178.602 202.698 179.117C202.797 179.283 202.848 179.467 202.854 179.647Z" fill="#222222"/>
<path d="M229.335 179.596L228.402 183.004C228.335 183.248 228.083 183.392 227.838 183.325C227.646 183.272 227.517 183.105 227.502 182.917L227.235 179.394C227.19 178.805 227.632 178.291 228.221 178.246C228.811 178.201 229.324 178.643 229.37 179.232C229.379 179.356 229.366 179.482 229.335 179.596Z" fill="#222222"/>
<path d="M239.545 187.135L235.651 188.484C235.412 188.567 235.152 188.44 235.069 188.202C235.002 188.008 235.074 187.798 235.233 187.682L238.571 185.265C239.047 184.919 239.714 185.025 240.059 185.503C240.405 185.98 240.298 186.646 239.821 186.992C239.736 187.053 239.64 187.102 239.545 187.135Z" fill="#222222"/>
<path d="M243.894 193.796L239.543 193.879C239.292 193.884 239.083 193.683 239.079 193.431C239.075 193.222 239.211 193.044 239.402 192.986L243.563 191.713C244.125 191.541 244.721 191.857 244.893 192.419C245.065 192.982 244.749 193.577 244.187 193.749C244.091 193.779 243.989 193.793 243.894 193.796Z" fill="#222222"/>
<path d="M255.119 224.092L251.795 225.384C251.559 225.476 251.294 225.359 251.202 225.122C251.13 224.936 251.188 224.732 251.331 224.608L254.034 222.283C254.482 221.898 255.158 221.949 255.543 222.397C255.928 222.846 255.878 223.521 255.429 223.907C255.335 223.986 255.227 224.05 255.119 224.092Z" fill="#222222"/>
<path d="M257.722 235.993L254.407 234.003C254.19 233.873 254.12 233.592 254.25 233.375C254.355 233.201 254.557 233.122 254.746 233.165L258.512 234.038C259.086 234.171 259.444 234.744 259.311 235.319C259.178 235.893 258.604 236.251 258.03 236.118C257.92 236.093 257.814 236.048 257.722 235.993Z" fill="#222222"/>
<path d="M257.007 260.785L255.015 258.017C254.867 257.811 254.914 257.525 255.12 257.376C255.28 257.261 255.489 257.264 255.644 257.368L258.474 259.27C258.965 259.601 259.096 260.266 258.766 260.757C258.436 261.249 257.769 261.379 257.278 261.049C257.171 260.976 257.078 260.884 257.007 260.785Z" fill="#222222"/>
<path d="M169.192 242.759L172.309 244.483C172.53 244.605 172.611 244.884 172.488 245.106C172.391 245.28 172.197 245.367 172.011 245.336L168.498 244.751C167.915 244.653 167.521 244.102 167.619 243.519C167.716 242.936 168.267 242.542 168.85 242.64C168.972 242.66 169.089 242.702 169.192 242.759Z" fill="#222222"/>
<path d="M224.255 228.236C226.48 228.236 228.285 225.774 228.285 222.736C228.285 219.699 226.48 217.237 224.255 217.237C222.029 217.237 220.224 219.699 220.224 222.736C220.224 225.774 222.029 228.236 224.255 228.236Z" fill="#222222"/>
<path d="M226.151 222.231C226.773 221.871 226.844 220.83 226.31 219.905C225.776 218.98 224.838 218.521 224.216 218.88C223.594 219.24 223.523 220.281 224.057 221.206C224.591 222.131 225.529 222.59 226.151 222.231Z" fill="white"/>
<path d="M202.758 227.118C204.984 227.118 206.789 224.656 206.789 221.619C206.789 218.581 204.984 216.119 202.758 216.119C200.533 216.119 198.728 218.581 198.728 221.619C198.728 224.656 200.533 227.118 202.758 227.118Z" fill="#222222"/>
<path d="M204.656 221.113C205.278 220.754 205.349 219.713 204.815 218.788C204.281 217.863 203.344 217.404 202.722 217.763C202.1 218.122 202.028 219.163 202.562 220.088C203.097 221.014 204.034 221.472 204.656 221.113Z" fill="white"/>
<path d="M208.36 228.838C209.087 229.523 209.921 229.974 210.823 230.297C211.725 230.611 212.676 230.795 213.631 230.837C214.587 230.878 215.544 230.768 216.458 230.491C217.376 230.216 218.239 229.761 219.071 229.128L219.083 229.119C219.285 228.965 219.575 229.004 219.729 229.207C219.841 229.355 219.85 229.55 219.768 229.704C219.203 230.752 218.25 231.619 217.145 232.167C216.037 232.721 214.79 232.966 213.564 232.937C212.338 232.906 211.115 232.608 210.031 232.012C209.489 231.716 208.984 231.338 208.553 230.882C208.13 230.423 207.765 229.891 207.578 229.291C207.502 229.047 207.639 228.787 207.883 228.711C208.048 228.66 208.22 228.706 208.338 228.816L208.36 228.838Z" fill="#222222"/>
<g opacity="0.3">
<path opacity="0.3" d="M200.805 183.166C199.757 184.245 198.152 184.753 196.674 184.474C197.396 185.863 196.996 187.737 195.77 188.711C195.201 189.164 194.4 189.587 194.431 190.314C194.464 191.087 195.415 191.428 196.185 191.505C198.491 191.734 200.909 191.333 202.854 190.072C204.799 188.812 206.199 186.625 206.214 184.308C206.224 182.691 205.335 180.351 203.743 179.626C201.79 178.736 201.854 182.085 200.805 183.166Z" fill="#222222"/>
</g>
<g opacity="0.3">
<path opacity="0.3" d="M171.173 244.276C172.929 244.592 174.752 244.936 176.19 245.99C177.91 247.251 178.845 249.491 178.566 251.606C178.337 253.341 177.319 254.956 175.853 255.911C174.387 256.865 172.498 257.144 170.819 256.652C171.753 256.467 172.579 255.829 173.148 255.067C173.717 254.305 173.992 253.328 173.904 252.38C173.861 251.915 173.728 251.448 173.452 251.071C173.175 250.694 172.741 250.417 172.274 250.4C173.086 249.576 173.383 248.4 173.211 247.256C173.038 246.113 172.192 244.824 171.173 244.276Z" fill="#222222"/>
</g>
<g opacity="0.3">
<path opacity="0.3" d="M204.542 179.12C204.657 178.886 204.777 178.654 204.907 178.427H204.91C212.871 174.947 220.667 175.209 228.284 179.494C230.62 175.417 232.09 176.18 232.88 180.775L239.057 186.2C249.396 183.298 251.93 186.648 250.309 189.529C250.472 189.168 250.568 188.782 250.577 188.378C250.602 187.402 250.098 186.432 249.291 185.889C248.48 185.346 247.221 185.117 246.329 185.512C247.136 186.603 246.736 188.248 245.777 189.212C244.818 190.177 243.463 190.617 242.149 190.96C240.272 191.451 238.283 191.819 236.402 191.343C234.522 190.867 232.506 189.27 232.711 187.341C232.852 185.98 232.434 184.566 231.572 183.502C230.945 182.731 230.059 182.131 229.071 182.017C228.082 181.902 226.829 182.279 226.347 183.147C219.79 179.452 211.988 178.011 204.542 179.12Z" fill="#222222"/>
</g>
<g opacity="0.3">
<path opacity="0.3" d="M258.116 235.016C262.046 247.44 261.519 255.371 257.74 260.027C261.356 265.978 256.459 268.012 252.918 265.023C238.379 272.128 197.219 272.71 179.196 263.869C179.172 263.691 179.16 263.514 179.166 263.339C191.12 266.493 203.716 267.036 215.938 265.171C216.336 265.746 216.737 266.319 217.134 266.891C217.442 267.328 217.761 267.78 218.231 268.036C218.755 268.326 219.4 268.319 219.979 268.166C221.076 267.871 221.995 267.166 222.429 266.117C222.522 266.903 223.339 267.527 224.119 267.403C224.903 267.283 225.566 266.391 225.412 265.613C230.767 265.306 236.028 263.537 240.482 260.554C244.936 257.568 248.534 253.343 250.854 248.51C250.935 249.058 251.016 249.616 251.23 250.131C251.447 250.643 251.815 251.113 252.324 251.337C252.836 251.557 253.496 251.472 253.858 251.047C254.286 250.544 254.178 249.791 254 249.152C253.711 248.112 253.328 246.961 252.816 245.997C253.078 246.452 253.669 246.69 254.187 246.566C254.745 246.434 255.179 245.928 255.281 245.364C255.383 244.798 255.176 244.198 254.787 243.776C254.338 243.288 253.66 242.939 253 243.002C253.096 239.102 252.698 235.206 251.517 231.488C253.165 232.343 255.25 232.286 256.851 231.343C257.468 230.978 258.059 230.388 258.023 229.67C257.993 229.047 257.471 228.534 256.887 228.315C256.302 228.097 255.657 228.116 255.034 228.134C254.377 228.155 253.852 228.248 253.196 228.27C253.711 227.911 254.241 227.534 254.549 226.986C254.856 226.438 254.862 225.669 254.395 225.25C254.121 225.006 253.729 224.922 253.362 224.946C252.994 224.97 252.642 225.091 252.292 225.211C251.608 225.446 250.752 225.757 250.065 225.992C249.468 223.216 248.772 220.495 247.829 217.819C248.161 218.184 248.838 218.018 249.074 217.581C249.312 217.147 249.173 216.587 248.866 216.198C248.544 215.8 248.116 215.484 247.625 215.435C248.291 215.414 248.935 214.935 249.122 214.29C249.327 213.582 248.965 212.75 248.305 212.419C247.643 212.091 246.669 212.169 246.226 212.76C245.34 210.352 244.46 207.854 243.575 205.443C244.292 205.398 244.756 204.587 244.693 203.87C244.606 202.903 243.732 202.189 242.759 202.158C243.467 202.017 244.079 201.484 244.32 200.805C244.561 200.124 244.416 199.323 243.955 198.771C243.461 198.178 242.376 197.885 241.713 198.28C240.9 196.629 240.312 194.93 239.498 193.275C241.056 193.031 242.693 192.751 244.26 192.564C245.516 192.417 246.8 192.26 247.951 191.751C246.803 192.384 245.36 192.784 243.729 192.754C248.081 201.616 251.588 211.952 254.578 223.189C260.273 221.673 262.036 226.278 256.31 228.085C264.013 227.597 264.273 234.865 258.116 235.016Z" fill="#222222"/>
</g>
<path d="M90.424 281.209V260.501H47.505V232.111L100.444 164.643H122.154V232.111H136.85V260.501H122.154V281.209H90.424ZM78.734 232.111H94.098V212.071L78.734 232.111Z" fill="white"/>
<path d="M364.424 281.209V260.501H321.505V232.111L374.444 164.643H396.154V232.111H410.85V260.501H396.154V281.209H364.424ZM352.734 232.111H368.098V212.071L352.734 232.111Z" fill="white"/>
<defs>
<filter id="filter0_f_2926_95" x="0" y="0" width="458" height="458" filterUnits="userSpaceOnUse" color-interpolation-filters="sRGB">
<feFlood flood-opacity="0" result="BackgroundImageFix"/>
<feBlend mode="normal" in="SourceGraphic" in2="BackgroundImageFix" result="shape"/>
<feGaussianBlur stdDeviation="73.5" result="effect1_foregroundBlur_2926_95"/>
</filter>
</defs>
</svg>
