<svg width="142" height="123" viewBox="0 0 142 123" fill="none" xmlns="http://www.w3.org/2000/svg">
<path d="M134.155 104.226C126.294 114.453 112.923 118.549 96.5217 119.278C76.7481 121.393 57.646 121.686 39.2826 119.983C34.8711 119.576 30.5079 118.76 26.2828 117.467C24.6856 116.984 23.1126 116.43 21.5611 115.806C-3.47988 105.73 -2.16592 86.5255 10.7398 50.7749C18.8518 31.2785 29.1214 15.2834 45.9211 6.95475C60.4906 -0.268401 77.5582 -0.1419 92.3631 6.58405C94.2315 7.4338 96.0366 8.36495 97.7751 9.3775C120.224 22.4015 132.058 48.4187 139.38 79.1549C141.454 87.8691 139.615 97.1234 134.155 104.226Z" fill="#344C34"/>
<g opacity="0.4">
<path opacity="0.4" d="M130.457 103.856C122.595 114.083 109.225 118.178 92.8234 118.908C73.6284 120.96 55.0659 121.297 37.1964 119.757C33.496 119.309 29.8407 118.555 26.2822 117.467C134.992 125.561 118.045 96.5303 88.3035 25.8217C87.5863 24.1222 88.8337 22.2511 90.6812 22.2357C101.867 22.1362 101.116 16.381 99.4438 12.5117C118.458 26.3761 128.966 50.5976 135.683 78.7845C137.756 87.4993 135.918 96.753 130.457 103.856Z" fill="#222222"/>
</g>
<g opacity="0.55">
<path opacity="0.55" d="M102.881 12.648C100.356 11.0084 97.6857 9.54432 94.8686 8.26337C80.0637 1.53742 62.9994 1.41092 48.4294 8.63407C31.6269 16.966 21.3573 32.9611 13.2481 52.4542C2.47852 82.2807 -0.221428 100.59 13.7183 111.691C-3.87673 100.882 -1.61073 82.1416 9.93982 50.1492C18.0518 30.6528 28.3214 14.6577 45.1211 6.32902C59.6906 -0.894134 76.7582 -0.767633 91.5631 5.95832C95.6425 7.81182 99.4061 10.0569 102.881 12.648Z" fill="white"/>
</g>
<path d="M101.117 77.016C105.046 89.4399 104.519 97.3715 100.74 102.027C104.357 107.978 99.4595 110.012 95.9192 107.023C81.3799 114.128 40.2201 114.71 22.1972 105.869C18.3037 103.958 15.4894 101.608 14.2568 98.7878C8.34158 99.8366 9.96298 96.0004 11.6201 93.7404C8.01928 94.0506 5.14113 88.467 11.8462 85.755C17.1707 63.046 23.3423 41.9315 35.049 31.2131C29.7063 26.7383 34.3709 25.0355 39.1922 26.4672C33.7136 19.8529 40.4731 16.9753 44.8423 21.9473C45.867 21.3808 46.8883 20.8715 47.9069 20.4287H47.9097C55.8709 16.9483 63.6666 17.2107 71.2841 21.4957C73.6194 17.4186 75.0901 18.1809 75.8794 22.7767L82.057 28.2008C92.3959 25.299 94.9303 28.6496 93.3089 31.5305C92.8447 32.3654 92.0279 33.1607 90.9493 33.7514C89.8015 34.3844 88.3578 34.7848 86.7276 34.7546C91.0786 43.6167 94.5865 53.9529 97.5758 65.1894C103.271 63.6735 105.034 68.2782 99.3083 70.086C107.014 69.5971 107.273 76.8653 101.117 77.016Z" fill="white"/>
<path d="M44.4902 48.8667C45.9449 51.9693 44.9797 54.1401 40.0704 54.793C38.1283 57.7063 36.3172 61.7086 34.5456 66.0426C38.4138 67.5271 37.8522 69.1386 32.4364 70.8892C34.2992 72.1553 34.0924 73.3851 31.9089 74.5808C31.5426 80.4224 32.8786 84.7245 36.5548 86.9107C38.3687 85.5368 39.0347 87.0416 39.1915 89.8235C44.6678 94.6322 51.1661 96.2118 58.5526 94.9842C57.2155 89.4539 61.3488 86.6968 63.1478 94.6074C65.5799 92.0092 67.5247 90.4879 66.8015 94.8709C73.8112 93.607 79.5054 90.7871 81.454 83.5332C77.2729 83.0811 77.8378 78.6739 81.9435 79.3147C78.5099 76.8897 76.6388 74.8921 82.5464 75.0208C82.0294 66.9358 80.1516 59.9063 75.8039 54.7935C72.3576 55.0828 70.5057 54.4608 73.2425 51.2152C67.4477 52.0512 63.249 51.9181 67.555 46.62C59.091 40.5298 51.336 40.6855 44.4902 48.8667Z" fill="#FF6D00"/>
<g opacity="0.4">
<g opacity="0.4">
<path opacity="0.4" d="M36.8745 75.1721C35.6145 75.1721 34.3533 75.0214 33.1235 74.7134L33.4898 73.2521C37.5257 74.2635 41.9406 73.3995 45.2983 70.9415C46.9362 69.7425 48.1033 68.3081 48.6748 66.794C49.3227 65.0763 49.1753 63.1843 48.2898 61.8555C47.4301 60.5652 45.8192 59.6742 43.8689 59.4102C42.0291 59.1605 40.1151 59.4465 38.2638 59.7237L38.0411 58.2337C39.9969 57.9417 42.0187 57.6403 44.0707 57.9169C46.4495 58.2387 48.4438 59.37 49.5432 61.02C50.6933 62.7454 50.9006 65.1616 50.0839 67.3253C49.4096 69.1133 48.0621 70.7842 46.1882 72.1565C43.4965 74.1277 40.1905 75.1721 36.8745 75.1721Z" fill="white"/>
</g>
<g opacity="0.4">
<path opacity="0.4" d="M33.6476 83.7393L33.2812 82.278C37.3342 81.2621 41.5247 80.2122 45.3571 78.4428C49.6251 76.4722 52.8272 73.8795 54.8732 70.7368C57.2217 67.1304 57.8602 62.6974 56.5402 59.1675C54.8215 54.5717 50.2856 51.7101 45.3917 48.9463L46.1326 47.634C51.2784 50.5402 56.0551 53.5685 57.9515 58.6395C59.436 62.6089 58.7402 67.5589 56.136 71.559C53.9327 74.9426 50.5188 77.719 45.989 79.8107C42.0279 81.6389 37.7676 82.707 33.6476 83.7393Z" fill="white"/>
</g>
<g opacity="0.4">
<path opacity="0.4" d="M48.1098 94.8511C46.8437 88.9414 48.9535 82.5383 53.4838 78.5387C54.9144 77.2759 56.5418 76.271 58.1148 75.2997C59.5283 74.4269 60.9897 73.5243 62.2574 72.4579C65.1977 69.9829 67.2129 66.541 67.9307 62.7652C68.6489 58.9895 68.0379 55.0482 66.2114 51.6668L67.5368 50.9507C69.5278 54.6357 70.1933 58.9317 69.4107 63.0468C68.6281 67.1619 66.4319 70.9135 63.2271 73.6107C61.8746 74.7486 60.3654 75.6809 58.9057 76.5818C57.3162 77.563 55.8147 78.4903 54.4799 79.6684C50.4137 83.2577 48.4458 89.2323 49.5816 94.5354L48.1098 94.8511Z" fill="white"/>
</g>
<g opacity="0.4">
<path opacity="0.4" d="M60.0877 90.3183C58.7517 87.5914 59.2946 83.9922 61.4704 81.1476C63.419 78.6011 66.2983 76.9511 68.858 75.6729C69.3777 75.4133 69.9019 75.1597 70.4266 74.9056C72.5237 73.8903 74.6924 72.8404 76.5222 71.4131C79.0209 69.4645 80.5306 66.9521 80.6648 64.5205L82.1691 64.603C82.0112 67.4691 80.2908 70.3841 77.449 72.6011C75.4932 74.1263 73.2514 75.212 71.0833 76.2614C70.5641 76.5127 70.0454 76.7635 69.5312 77.0204C67.1255 78.2216 64.4288 79.7594 62.6672 82.0622C61.1662 84.0235 60.2048 87.1321 61.4407 89.6544L60.0877 90.3183Z" fill="white"/>
</g>
<g opacity="0.4">
<path opacity="0.4" d="M70.258 94.0515C68.058 90.7724 67.8171 86.2217 69.658 82.7281C71.4988 79.2345 75.3884 76.8606 79.3374 76.821L79.3523 78.3275C75.9412 78.3616 72.5812 80.4126 70.9906 83.4304C69.4006 86.4483 69.609 90.3791 71.5093 93.2122L70.258 94.0515Z" fill="white"/>
</g>
</g>
<g opacity="0.35">
<path opacity="0.35" d="M47.1262 55.3342C45.0395 58.1898 43.7217 61.789 44.3294 65.2733C44.5813 66.7165 45.4921 68.3428 46.9568 68.3302C48.4137 68.3175 49.2668 66.7495 49.9598 65.4674C51.5807 62.4705 54.0073 59.9135 56.9157 58.1387C58.6124 57.103 60.6645 56.0861 61.1061 54.1479C61.4983 52.4269 60.3741 50.7098 58.9952 49.7765C57.7269 48.9179 56.0208 49.0202 54.5485 49.4135C51.4074 50.2511 48.9555 52.8312 47.1262 55.3342Z" fill="white"/>
</g>
<g opacity="0.35">
<path opacity="0.35" d="M43.0543 77.649C43.3497 79.6405 44.4634 81.4978 46.081 82.6957C46.6453 83.1137 47.2926 83.4613 47.9933 83.5092C48.694 83.5565 49.4519 83.2452 49.7748 82.6215C50.0652 82.0599 49.9612 81.3846 49.849 80.7625C49.4437 78.5031 49.0378 76.2432 48.6324 73.9838C48.4916 73.2 48.3217 72.3602 47.7447 71.8113C46.7591 70.8741 44.9815 71.3108 44.2198 72.2848C43.1192 73.6912 42.8008 75.9379 43.0543 77.649Z" fill="white"/>
</g>
<path d="M63.6114 122.285C55.2536 122.285 47.0927 121.918 39.1716 121.185C32.724 120.588 26.647 119.155 21.1102 116.926C8.46456 111.837 1.98611 104.252 0.722208 93.0541C-0.367342 83.3994 2.28971 70.6323 9.60691 50.3648C9.61351 50.3466 9.62011 50.329 9.62781 50.3109C19.31 27.0404 30.3381 13.3355 45.3861 5.87474C60.0722 -1.40671 77.3763 -1.54861 92.8615 5.48644C115.974 15.9854 131.128 39.3054 140.551 78.8751C142.748 88.0981 140.765 97.6059 135.11 104.962C127.719 114.576 115.127 119.653 96.6125 120.48C85.354 121.683 74.3216 122.285 63.6114 122.285ZM39.3944 118.785C57.3172 120.445 76.4941 120.207 96.3936 118.08C96.4184 118.077 96.4431 118.075 96.4684 118.074C114.249 117.285 126.264 112.516 133.2 103.493C138.409 96.716 140.235 87.9468 138.207 79.4345C128.97 40.6479 114.244 17.8482 91.8649 7.68203C77.0419 0.947836 60.4913 1.07654 46.4575 8.03514C31.9738 15.2165 21.3049 28.532 11.8652 51.2112C4.68936 71.0926 2.07356 83.5259 3.11856 92.7846C4.28786 103.147 10.1146 109.903 22.0111 114.691C27.3307 116.832 33.1794 118.209 39.3944 118.785Z" fill="#222222"/>
<path d="M61.0841 113.483C47.1916 113.483 34.3453 111.669 25.5805 108.447C19.4914 106.208 15.4836 103.353 13.651 99.9499C12.3711 100.112 10.3202 100.15 9.41486 98.6948C8.64595 97.4589 9.14701 95.859 9.85156 94.5555C8.40946 94.0511 7.2484 92.8323 6.8733 91.2659C6.40415 89.3096 7.2506 86.68 10.9411 84.9965C15.6568 64.9363 21.6953 42.7906 33.4977 31.2307C31.3335 29.0972 31.4055 27.5836 31.9033 26.6574C32.6865 25.1999 34.7391 24.7759 36.8973 24.9596C35.4997 22.297 36.0778 20.3445 37.2977 19.3039C38.9944 17.8563 42.328 18.0202 45.0483 20.6366C53.9258 15.9539 62.6158 15.7702 70.9043 20.0893C71.7695 18.76 72.8728 17.5758 74.2197 17.8123C75.8345 18.0978 76.4857 20.2505 76.8531 22.2266L82.3267 27.0325C88.154 25.481 92.2977 25.7505 94.0274 27.8036C94.9355 28.8811 95.068 30.3155 94.3904 31.7389C93.5748 33.4532 91.4072 35.2561 88.3569 35.7038C92.0397 43.4896 95.3133 52.7566 98.335 63.9463C101.462 63.431 103.332 64.6828 103.773 66.2013C104.059 67.1853 103.774 68.3551 102.731 69.3726C104.102 69.7807 105.179 70.5216 105.844 71.5512C106.634 72.7727 106.709 74.2511 106.047 75.5051C105.388 76.752 104.129 77.5973 102.5 77.9229C105.85 89.0835 105.687 97.0151 102.004 102.111C104.156 106.113 102.45 108.046 101.848 108.562C100.332 109.859 97.8653 109.707 95.7869 108.252C88.9856 111.35 76.8702 113.293 63.1389 113.469C62.4525 113.478 61.7661 113.483 61.0841 113.483ZM14.2576 97.7328C14.6707 97.7328 15.054 97.9765 15.224 98.3653C16.6138 101.549 20.3434 104.274 26.3087 106.467C46.0295 113.716 82.5742 112.371 95.4569 106.076C95.832 105.893 96.2808 105.949 96.6003 106.218C98.0952 107.48 99.7458 107.586 100.478 106.96C101.3 106.256 101.056 104.576 99.8404 102.575C99.6088 102.194 99.6418 101.709 99.9229 101.363C103.643 96.7791 103.706 88.6947 100.113 77.3344C100.013 77.0182 100.067 76.6733 100.26 76.4038C100.453 76.1343 100.761 75.9704 101.093 75.9622C102.591 75.9259 103.718 75.4006 104.183 74.5201C104.489 73.9415 104.449 73.2771 104.074 72.6974C103.352 71.5803 101.597 70.9995 99.3767 71.1381C98.8454 71.1761 98.3713 70.8032 98.2734 70.279C98.1755 69.7549 98.4841 69.2401 98.9928 69.0795C101.155 68.3969 101.906 67.3299 101.749 66.7904C101.573 66.1832 100.211 65.5776 97.8488 66.2074C97.5782 66.2794 97.2906 66.2409 97.0486 66.1007C96.8066 65.9604 96.63 65.73 96.558 65.4594C93.3152 53.2758 89.7908 43.384 85.7824 35.2182C85.6207 34.8882 85.6421 34.4977 85.839 34.1875C86.0359 33.8778 86.3753 33.7024 86.7482 33.6985C89.5922 33.7574 91.7906 32.2949 92.4874 30.8319C92.7074 30.3699 92.8735 29.705 92.4159 29.1621C91.5013 28.077 88.3751 27.5209 82.3438 29.2144C82 29.3106 81.631 29.227 81.3626 28.9916L75.1855 23.5675C75.004 23.408 74.883 23.1913 74.8418 22.9537C74.4535 20.6954 73.997 20.0646 73.8523 19.915C73.6818 20.003 73.1324 20.3913 72.2012 22.0187C71.9136 22.5214 71.2739 22.698 70.769 22.4142C62.5559 17.7958 54.2426 17.9449 45.3552 22.8696C44.9218 23.1099 44.3789 23.0159 44.0517 22.643C42.0051 20.3143 39.5692 20.1394 38.6683 20.9083C37.7041 21.7311 38.2294 23.6489 40.0064 25.7939C40.3029 26.1514 40.3298 26.6607 40.0741 27.0479C39.8183 27.4351 39.3382 27.6095 38.8938 27.4775C36.042 26.631 34.0378 27.1431 33.7628 27.6551C33.5984 27.9609 33.9867 28.9454 35.728 30.404C35.9612 30.5993 36.0987 30.8853 36.1053 31.1894C36.1119 31.4936 35.987 31.7851 35.7632 31.9908C23.7446 42.9963 17.6467 65.6376 12.8749 85.9953C12.7968 86.3291 12.5614 86.6036 12.2435 86.7323C9.7971 87.7217 8.55685 89.2326 8.92645 90.7737C9.20805 91.9496 10.3488 92.7916 11.5318 92.6888C11.9421 92.6558 12.3392 92.862 12.5416 93.2228C12.7446 93.5836 12.7176 94.0297 12.4729 94.3635C11.2541 96.0251 10.9994 97.245 11.2073 97.5799C11.3487 97.8065 12.1115 98.0975 14.0745 97.7488C14.135 97.7378 14.1966 97.7328 14.2576 97.7328Z" fill="#222222"/>
<path d="M53.9396 96.4334C48.0827 96.4334 42.9044 94.4858 38.4967 90.616C38.2844 90.4296 38.1552 90.165 38.1398 89.8829C38.0441 88.1883 37.779 87.6284 37.6717 87.4673C37.5903 87.4959 37.4347 87.5685 37.1932 87.7516C36.8511 88.0101 36.3864 88.0365 36.0173 87.8176C32.1833 85.5379 30.4475 81.0625 30.8583 74.5153C30.8809 74.1545 31.0871 73.83 31.4045 73.6562C32.4104 73.1057 32.6442 72.7058 32.6491 72.5986C32.653 72.5205 32.516 72.2185 31.845 71.7626C31.5117 71.536 31.3368 71.1394 31.394 70.7407C31.4512 70.3419 31.7306 70.0103 32.1134 69.8865C35.117 68.9158 35.8116 68.2327 35.9612 68.027C35.8474 67.8895 35.4464 67.5182 34.1693 67.0282C33.9048 66.9264 33.6919 66.7224 33.5792 66.4622C33.4664 66.2015 33.4637 65.9073 33.5709 65.6444C35.0466 62.0342 37.0194 57.4714 39.1941 54.2088C39.3624 53.9563 39.6314 53.788 39.9328 53.7484C42.0486 53.4668 43.4066 52.8794 43.8603 52.0489C44.2024 51.4225 44.0935 50.5029 43.5369 49.3149C43.3631 48.9436 43.4198 48.5047 43.6832 48.1907C50.6314 39.8868 58.8704 39.0706 68.1731 45.7641C68.409 45.934 68.5641 46.1931 68.6026 46.4813C68.6411 46.7689 68.5586 47.0599 68.3755 47.2854C66.588 49.4848 66.8591 50.1129 66.8624 50.1184C66.946 50.2653 67.6385 50.9594 73.0939 50.1718C73.5279 50.1102 73.9541 50.3208 74.1664 50.7036C74.3787 51.0864 74.3331 51.5605 74.0509 51.8955C73.177 52.9322 73.0164 53.4371 72.9878 53.6005C73.1572 53.689 73.7853 53.9046 75.718 53.7435C76.0568 53.7127 76.389 53.8518 76.6095 54.1109C80.7268 58.9525 83.0137 65.7703 83.6006 74.9537C83.6193 75.2485 83.5137 75.5378 83.3096 75.7512C83.1056 75.9646 82.8234 76.0916 82.5253 76.0757C81.0249 76.0427 80.2813 76.1631 79.9326 76.2599C80.19 76.5943 80.8522 77.2521 82.5545 78.4539C82.9543 78.7366 83.1072 79.2569 82.9235 79.7112C82.7398 80.1655 82.2674 80.4339 81.7834 80.3574C80.8616 80.2144 80.1152 80.38 79.7858 80.8024C79.6235 81.0103 79.5916 81.26 79.6956 81.5053C79.9117 82.0157 80.6119 82.3825 81.5694 82.4859C81.8758 82.5195 82.1524 82.6845 82.3262 82.9386C82.5 83.1927 82.5545 83.5106 82.4747 83.8081C80.1191 92.5779 72.5098 94.9154 66.9906 95.9103C66.6534 95.9719 66.3075 95.8647 66.0633 95.6238C65.8191 95.3829 65.7074 95.0391 65.763 94.7009C65.8581 94.1234 65.8933 93.718 65.9005 93.4386C65.527 93.7202 64.9143 94.2675 63.9205 95.3295C63.6537 95.6144 63.2511 95.7288 62.8749 95.6271C62.4982 95.5248 62.2089 95.2234 62.122 94.8428C61.4499 91.8876 60.5127 90.8762 60.1112 90.7535C60.0655 90.7392 60.0259 90.7277 59.9225 90.8256C59.5172 91.2084 59.0656 92.6087 59.5804 94.7377C59.6492 95.0226 59.5964 95.3229 59.4347 95.5677C59.273 95.8119 59.0167 95.978 58.7279 96.0258C57.0851 96.297 55.4884 96.4334 53.9396 96.4334ZM40.2155 89.3131C45.0362 93.4001 50.6435 94.9726 57.3166 94.1014C57.0438 92.0323 57.458 90.2475 58.4733 89.2894C59.1052 88.6938 59.9253 88.4903 60.7239 88.7339C61.9405 89.1041 62.9459 90.4186 63.6752 92.5702C65.0485 91.2766 66.0737 90.7337 67.0247 91.2034C67.8332 91.6022 68.04 92.5152 68.007 93.5552C74.6284 92.0977 78.4295 89.1992 80.1114 84.3229C78.98 83.9533 78.1462 83.2576 77.7519 82.3259C77.3487 81.3727 77.4868 80.3173 78.122 79.5033C78.4256 79.1144 78.8156 78.8081 79.2743 78.5903C78.0126 77.4815 77.429 76.5278 77.7557 75.5356C78.1523 74.3322 79.6576 74.0132 81.4138 73.9653C80.7714 66.0756 78.7787 60.146 75.3401 55.8841C73.5455 55.9924 71.7503 55.8549 71.0886 54.5751C70.752 53.9239 70.8389 53.2171 71.1211 52.5379C68.0251 52.8343 65.8438 52.5973 65.0271 51.1579C64.2774 49.8363 65.0865 48.2 66.0468 46.8547C58.2577 41.6402 51.5933 42.3629 45.7182 49.0553C46.315 50.6134 46.3133 51.9576 45.7111 53.0593C44.946 54.4601 43.3026 55.3484 40.6951 55.7675C38.9048 58.562 37.2416 62.2949 35.9183 65.4832C37.0502 66.0332 38.1337 66.8428 38.1007 68.0693C38.0672 69.3162 36.9336 70.3232 34.3745 71.3231C34.6517 71.7637 34.7798 72.2229 34.7567 72.6987C34.7122 73.6271 34.1143 74.4488 32.934 75.2012C32.7058 80.3288 33.8965 83.7608 36.5629 85.6567C37.2779 85.2843 37.9423 85.2359 38.544 85.5148C39.7557 86.0752 40.0945 87.7659 40.2155 89.3131ZM36.0025 68.0847H36.0052H36.0025Z" fill="#222222"/>
<path d="M43.6893 49.5514L41.9375 46.5737C41.8088 46.3553 41.882 46.0737 42.1003 45.945C42.2708 45.8444 42.4798 45.8675 42.6245 45.9863L45.2925 48.1813C45.7496 48.5575 45.815 49.2324 45.4394 49.6889C45.0637 50.1459 44.3883 50.2114 43.9318 49.8357C43.8334 49.7543 43.7509 49.6553 43.6893 49.5514Z" fill="#222222"/>
<path d="M39.9449 55.8392L36.8776 54.864C36.6356 54.787 36.5014 54.5285 36.5784 54.286C36.6372 54.1012 36.8028 53.9796 36.9854 53.9664L40.1963 53.7448C40.7881 53.7041 41.3007 54.1507 41.3414 54.7419C41.3821 55.3337 40.9355 55.8463 40.3442 55.887C40.2062 55.8969 40.0692 55.8782 39.9449 55.8392Z" fill="#222222"/>
<path d="M66.8817 45.8071L69.4893 44.4249C69.7147 44.3056 69.9942 44.3914 70.1135 44.6169C70.2021 44.7841 70.1773 44.9815 70.0667 45.1207L68.2298 47.4301C67.8591 47.896 67.1815 47.973 66.7156 47.6023C66.2503 47.2321 66.1728 46.554 66.5435 46.0887C66.637 45.9699 66.7563 45.8747 66.8817 45.8071Z" fill="#222222"/>
<path d="M75.4376 53.8028L78.2844 53.3887C78.5368 53.3518 78.7717 53.5267 78.8085 53.7797C78.8355 53.9651 78.748 54.1416 78.5995 54.2362L76.1724 55.7807C75.6697 56.1008 75.0031 55.9523 74.6835 55.4495C74.3634 54.9468 74.5119 54.2802 75.0146 53.9601C75.145 53.8771 75.2929 53.8248 75.4376 53.8028Z" fill="#222222"/>
<path d="M81.5051 82.4797L85.921 83.2953C86.1685 83.3409 86.3325 83.5791 86.2868 83.8266C86.2489 84.0328 86.0767 84.1808 85.8776 84.1984L81.4039 84.5872C80.8182 84.6378 80.3023 84.2044 80.2517 83.6187C80.2005 83.0335 80.6345 82.5176 81.2197 82.4665C81.3159 82.4577 81.4149 82.4637 81.5051 82.4797Z" fill="#222222"/>
<path d="M82.7905 73.9933L85.0241 75.1444C85.2529 75.2621 85.3425 75.5432 85.2248 75.7714C85.1429 75.9304 84.9817 76.0222 84.8151 76.0239L82.3027 76.0453C81.7026 76.0503 81.212 75.5679 81.2071 74.9684C81.2021 74.3689 81.6845 73.8783 82.284 73.8728C82.4649 73.8712 82.6398 73.9163 82.7905 73.9933Z" fill="#222222"/>
<path d="M59.5273 94.5793L60.025 97.3585C60.0701 97.6099 59.9029 97.8508 59.651 97.8953C59.4679 97.9283 59.2897 97.8475 59.1896 97.7039L57.5781 95.3856C57.2376 94.8961 57.3586 94.2235 57.8481 93.883C58.3376 93.5426 59.0103 93.6636 59.3507 94.1531C59.4415 94.284 59.5003 94.433 59.5273 94.5793Z" fill="#222222"/>
<path d="M37.3283 87.6285L35.2295 89.0013C35.0144 89.1421 34.7257 89.0816 34.5849 88.8666C34.4875 88.7175 34.487 88.5322 34.5673 88.3859L35.7833 86.1931C36.0743 85.6678 36.7354 85.4786 37.2606 85.7696C37.7853 86.0605 37.9751 86.7216 37.6841 87.2469C37.5961 87.4047 37.4696 87.5356 37.3283 87.6285Z" fill="#222222"/>
<path d="M45.8539 21.6473L45.9287 24.0277C45.9369 24.2856 45.734 24.5012 45.4766 24.5089C45.3022 24.5144 45.1466 24.4231 45.0619 24.2834L43.831 22.244C43.5197 21.7287 43.6852 21.0588 44.2011 20.7475C44.7165 20.4362 45.3869 20.6017 45.6977 21.1171C45.7972 21.2826 45.8478 21.4674 45.8539 21.6473Z" fill="#222222"/>
<path d="M72.3349 21.5957L71.4021 25.0035C71.335 25.2477 71.0831 25.3918 70.8384 25.3247C70.6464 25.2724 70.5166 25.1047 70.5023 24.9171L70.235 21.3944C70.1905 20.8048 70.6321 20.2911 71.2212 20.246C71.8108 20.2015 72.3245 20.6431 72.3696 21.2322C72.3789 21.3565 72.3657 21.4819 72.3349 21.5957Z" fill="#222222"/>
<path d="M82.5451 29.1352L78.6506 30.4844C78.4119 30.5669 78.1517 30.4404 78.0692 30.2022C78.0016 30.0075 78.0742 29.798 78.2331 29.6825L81.5705 27.2647C82.0474 26.9193 82.714 27.0254 83.0593 27.5028C83.4047 27.9797 83.2981 28.6463 82.8212 28.9917C82.736 29.0533 82.6397 29.1017 82.5451 29.1352Z" fill="#222222"/>
<path d="M86.8945 35.7961L82.5434 35.8786C82.2915 35.8836 82.0831 35.6834 82.0787 35.4309C82.0748 35.2225 82.2112 35.0437 82.4015 34.986L86.5634 33.7127C87.1255 33.5406 87.7211 33.8568 87.8933 34.4195C88.0654 34.9816 87.7492 35.5772 87.1865 35.7494C87.0908 35.7785 86.9891 35.7934 86.8945 35.7961Z" fill="#222222"/>
<path d="M98.1185 66.0924L94.7954 67.3838C94.5594 67.4757 94.2938 67.3585 94.2019 67.122C94.1299 66.9361 94.1876 66.7315 94.3306 66.6083L97.0339 64.2835C97.4822 63.8985 98.1576 63.9491 98.5431 64.3973C98.9281 64.8456 98.8775 65.521 98.4293 65.9065C98.3347 65.9863 98.2274 66.0495 98.1185 66.0924Z" fill="#222222"/>
<path d="M100.722 77.9934L97.4068 76.0035C97.1901 75.8731 97.1197 75.5921 97.25 75.3754C97.3545 75.201 97.5575 75.1218 97.7456 75.1653L101.512 76.0376C102.086 76.1707 102.444 76.7443 102.311 77.3191C102.178 77.8933 101.604 78.2513 101.03 78.1182C100.92 78.0929 100.814 78.0484 100.722 77.9934Z" fill="#222222"/>
<path d="M100.007 102.785L98.0151 100.017C97.8672 99.8111 97.9139 99.5245 98.1196 99.3761C98.2796 99.2611 98.4892 99.2644 98.6437 99.3678L101.474 101.27C101.965 101.601 102.096 102.266 101.766 102.757C101.436 103.249 100.769 103.379 100.278 103.049C100.171 102.976 100.078 102.884 100.007 102.785Z" fill="#222222"/>
<path d="M12.1923 84.7586L15.3086 86.4828C15.5303 86.6055 15.6106 86.8843 15.4879 87.106C15.3911 87.2803 15.197 87.3672 15.0111 87.3364L11.4982 86.7507C10.9152 86.6533 10.5214 86.1017 10.6188 85.5192C10.7161 84.9362 11.2672 84.5424 11.8502 84.6398C11.9723 84.6596 12.0895 84.7019 12.1923 84.7586Z" fill="#222222"/>
<path d="M67.2545 70.2357C69.4805 70.2357 71.2849 67.7735 71.2849 64.7363C71.2849 61.699 69.4805 59.2368 67.2545 59.2368C65.0286 59.2368 63.2241 61.699 63.2241 64.7363C63.2241 67.7735 65.0286 70.2357 67.2545 70.2357Z" fill="#222222"/>
<path d="M69.1507 64.2307C69.7728 63.8715 69.8441 62.8303 69.3099 61.9052C68.7758 60.98 67.8384 60.5212 67.2163 60.8804C66.5942 61.2396 66.5229 62.2807 67.057 63.2059C67.5912 64.1311 68.5285 64.5899 69.1507 64.2307Z" fill="white"/>
<path d="M45.7584 69.1181C47.9844 69.1181 49.7888 66.6559 49.7888 63.6186C49.7888 60.5813 47.9844 58.1191 45.7584 58.1191C43.5325 58.1191 41.728 60.5813 41.728 63.6186C41.728 66.6559 43.5325 69.1181 45.7584 69.1181Z" fill="#222222"/>
<path d="M47.656 63.1132C48.2781 62.754 48.3494 61.7129 47.8153 60.7877C47.2811 59.8626 46.3438 59.4038 45.7217 59.763C45.0995 60.1222 45.0282 61.1633 45.5624 62.0885C46.0965 63.0136 47.0339 63.4724 47.656 63.1132Z" fill="white"/>
<path d="M51.3597 70.8376C52.0868 71.5235 52.9211 71.9739 53.8231 72.2967C54.7251 72.6108 55.6761 72.795 56.6314 72.8374C57.5873 72.8781 58.5438 72.7675 59.4579 72.4909C60.3758 72.2159 61.2393 71.761 62.0709 71.128L62.083 71.1186C62.2854 70.9646 62.5747 71.0037 62.7287 71.2066C62.8415 71.3551 62.8503 71.5499 62.7678 71.7039C62.2029 72.7521 61.2498 73.6189 60.1448 74.1673C59.0371 74.7206 57.7897 74.9664 56.5643 74.9373C55.3384 74.9065 54.1152 74.6084 53.0306 74.0122C52.4888 73.7157 51.9839 73.3379 51.5533 72.8825C51.1298 72.4232 50.7646 71.8909 50.5781 71.2914C50.5022 71.0472 50.6386 70.787 50.8828 70.7111C51.0478 70.6599 51.22 70.7056 51.3377 70.8156L51.3597 70.8376Z" fill="#222222"/>
<g opacity="0.3">
<path opacity="0.3" d="M43.805 25.1658C42.7567 26.2455 41.1524 26.7531 39.674 26.4737C40.3956 27.863 39.9957 29.7374 38.7703 30.7115C38.2005 31.1641 37.3997 31.5871 37.4311 32.3142C37.4641 33.0875 38.415 33.4285 39.185 33.5049C41.4912 33.7337 43.909 33.3328 45.8538 32.0722C47.7986 30.8116 49.1989 28.6253 49.2137 26.3082C49.2242 24.6912 48.3354 22.3515 46.7431 21.626C44.7895 20.7361 44.8544 24.0851 43.805 25.1658Z" fill="#222222"/>
</g>
<g opacity="0.3">
<path opacity="0.3" d="M14.173 86.2764C15.9286 86.5921 17.7518 86.9358 19.1901 87.9902C20.9099 89.2513 21.8449 91.4915 21.5661 93.6062C21.3367 95.3409 20.3192 96.9557 18.8529 97.9105C17.3866 98.8653 15.4985 99.1436 13.8193 98.6519C14.7527 98.4671 15.5788 97.8291 16.148 97.0668C16.7173 96.3045 16.9923 95.3277 16.9043 94.3801C16.8608 93.9148 16.7283 93.4478 16.4516 93.0705C16.175 92.6938 15.741 92.4171 15.2741 92.3995C16.0859 91.5762 16.3834 90.3997 16.2107 89.2563C16.038 88.1134 15.1916 86.8236 14.173 86.2764Z" fill="#222222"/>
</g>
<g opacity="0.3">
<path opacity="0.3" d="M47.5425 21.1205C47.6569 20.8856 47.7773 20.6535 47.9071 20.4275H47.9099C55.8711 16.9471 63.6668 17.2094 71.2843 21.4945C73.6196 17.4173 75.0903 18.1796 75.8796 22.7754L82.0572 28.1995C92.3961 25.2977 94.9305 28.6483 93.3091 31.5292C93.4719 31.1679 93.5681 30.7818 93.5775 30.3781C93.6017 29.4018 93.0984 28.4316 92.291 27.8888C91.4803 27.3465 90.2208 27.1171 89.3287 27.512C90.1361 28.6027 89.7357 30.2483 88.7771 31.2124C87.8184 32.1766 86.4627 32.6166 85.1487 32.9603C83.2716 33.4515 81.2828 33.8189 79.4023 33.3431C77.5219 32.8668 75.5061 31.2702 75.7107 29.3413C75.8521 27.9795 75.4335 26.566 74.5717 25.5023C73.9447 24.7307 73.0592 24.1312 72.0708 24.0168C71.0825 23.9024 69.829 24.2791 69.3467 25.147C62.7901 21.4516 54.9884 20.0111 47.5425 21.1205Z" fill="#222222"/>
</g>
<g opacity="0.3">
<path opacity="0.3" d="M101.116 77.0159C105.046 89.4398 104.519 97.3714 100.74 102.027C104.356 107.978 99.4587 110.012 95.9183 107.023C81.3791 114.128 40.2193 114.71 22.1963 105.869C22.1721 105.691 22.16 105.514 22.1661 105.339C34.1203 108.493 46.7159 109.036 58.938 107.171C59.3356 107.746 59.7366 108.319 60.1342 108.891C60.4417 109.328 60.7612 109.78 61.2309 110.036C61.7551 110.326 62.4002 110.319 62.9788 110.166C64.0755 109.871 64.9946 109.166 65.4285 108.117C65.522 108.903 66.3388 109.527 67.1192 109.403C67.903 109.283 68.5657 108.391 68.4117 107.613C73.7665 107.306 79.0278 105.537 83.4817 102.554C87.9356 99.5675 91.5337 95.343 93.8536 90.5096C93.935 91.0579 94.0164 91.6156 94.2304 92.131C94.4471 92.643 94.815 93.1133 95.3243 93.3366C95.8364 93.5566 96.4964 93.4724 96.8583 93.0473C97.2862 92.544 97.1778 91.7905 97.0002 91.152C96.7109 90.1125 96.3281 88.9613 95.816 87.9972C96.0784 88.452 96.6691 88.6902 97.1872 88.5664C97.7449 88.4339 98.1788 87.9279 98.2811 87.3641C98.3834 86.7976 98.1755 86.1981 97.7867 85.7763C97.3379 85.2879 96.6597 84.9386 95.9997 85.0019C96.096 81.1024 95.6983 77.2062 94.5169 73.4877C96.1653 74.3435 98.2503 74.2862 99.8508 73.343C100.468 72.9783 101.059 72.3877 101.023 71.6705C100.993 71.0468 100.471 70.5342 99.8866 70.3147C99.3019 70.0975 98.6573 70.1156 98.0336 70.1338C97.3769 70.1547 96.8522 70.2482 96.1955 70.2696C96.7109 69.911 97.2411 69.5343 97.5485 68.9859C97.856 68.4376 97.862 67.6692 97.3951 67.2501C97.1206 67.0059 96.729 66.9218 96.3616 66.946C95.9942 66.9702 95.6417 67.0906 95.2919 67.2111C94.6077 67.4459 93.7519 67.7567 93.0649 67.9915C92.4682 65.2162 91.7724 62.4954 90.8292 59.8191C91.1608 60.1837 91.8384 60.0182 92.0738 59.5809C92.312 59.147 92.1734 58.5865 91.8659 58.1977C91.5436 57.8 91.1157 57.4838 90.6246 57.4354C91.2906 57.4145 91.9352 56.9354 92.1222 56.2903C92.3274 55.5819 91.9655 54.7503 91.3055 54.4192C90.6427 54.0908 89.6692 54.1689 89.2265 54.7596C88.3404 52.3517 87.4604 49.8536 86.5749 47.443C87.2921 47.3979 87.7563 46.5872 87.6931 45.87C87.6056 44.9025 86.7317 44.1886 85.7587 44.1584C86.4671 44.017 87.0787 43.4835 87.3196 42.8054C87.5605 42.1245 87.4159 41.3226 86.955 40.7715C86.4605 40.178 85.3759 39.8854 84.7132 40.2803C83.8997 38.6292 83.3118 36.9297 82.4983 35.2753C84.0565 35.0311 85.6927 34.7512 87.2597 34.5642C88.5164 34.4168 89.8001 34.26 90.9513 33.7507C89.8034 34.3838 88.3597 34.7842 86.7295 34.7539C91.0805 43.6161 94.5884 53.9522 97.5777 65.1887C103.273 63.6729 105.036 68.2775 99.3102 70.0854C107.013 69.597 107.273 76.8652 101.116 77.0159Z" fill="#222222"/>
</g>
</svg>
