<svg width="25" height="25" viewBox="0 0 25 25" fill="none" xmlns="http://www.w3.org/2000/svg">
<g clip-path="url(#clip0)">
<path d="M8.85464 23.9583C10.2929 23.9583 11.4588 22.7924 11.4588 21.3542C11.4588 19.9159 10.2929 18.75 8.85464 18.75C7.41641 18.75 6.25049 19.9159 6.25049 21.3542C6.25049 22.7924 7.41641 23.9583 8.85464 23.9583Z" fill="black"/>
<path d="M24.8963 4.37502C24.7922 4.27087 24.688 4.16667 24.4797 4.16667H4.68799L4.16714 1.45837C4.06299 1.25002 3.85464 1.04172 3.64629 1.04172H0.521289C0.208838 1.04167 0.000488281 1.25002 0.000488281 1.56252C0.000488281 1.87502 0.208838 2.08337 0.521338 2.08337H3.22969L5.72969 14.7917C6.14634 16.4584 7.60469 17.7084 9.37554 17.7084H21.3547C21.6672 17.7084 21.8755 17.5 21.8755 17.1875C21.8755 16.875 21.6672 16.6667 21.3547 16.6667H9.37549C8.54214 16.6667 7.70884 16.25 7.29214 15.5208L22.5005 13.4375C22.7088 13.4375 22.9171 13.2292 22.9171 13.0209L25.0005 4.68752C25.0005 4.68752 25.0005 4.47917 24.8963 4.37502Z" fill="black"/>
<path d="M19.2714 23.9583C20.7096 23.9583 21.8755 22.7924 21.8755 21.3542C21.8755 19.9159 20.7096 18.75 19.2714 18.75C17.8332 18.75 16.6672 19.9159 16.6672 21.3542C16.6672 22.7924 17.8332 23.9583 19.2714 23.9583Z" fill="black"/>
</g>
<defs>
<clipPath id="clip0">
<rect width="25" height="25" fill="white" transform="translate(0.000488281)"/>
</clipPath>
</defs>
</svg>
